<svg width="1440" height="375" xmlns="http://www.w3.org/2000/svg" xmlns:xlink="http://www.w3.org/1999/xlink"><defs><path id="a" d="M0 0h1440v375H0z"/><linearGradient x1="50%" y1="0%" x2="50%" y2="100%" id="c"><stop stop-opacity="0" offset="0%"/><stop stop-color="#FFF" offset="100%"/></linearGradient><path d="M0 0c28.774 92.386 167.784 148.461 417.03 168.226C790.9 197.872 1241.96-23.532 1440 141.432V0H0z" id="d"/><filter x="-1.7%" y="-14%" width="103.3%" height="128.1%" filterUnits="objectBoundingBox" id="e"><feGaussianBlur stdDeviation="24" in="SourceAlpha" result="shadowBlurInner1"/><feOffset in="shadowBlurInner1" result="shadowOffsetInner1"/><feComposite in="shadowOffsetInner1" in2="SourceAlpha" operator="arithmetic" k2="-1" k3="1" result="shadowInnerInner1"/><feColorMatrix values="0 0 0 0 0 0 0 0 0 0 0 0 0 0 0 0 0 0 0.35 0" in="shadowInnerInner1"/></filter><linearGradient x1="0%" y1="0%" x2="100%" y2="100%" id="f"><stop stop-color="#FF5722" stop-opacity="0" offset="0%"/><stop stop-color="#FF5722" offset="100%"/></linearGradient></defs><g fill="none" fill-rule="evenodd"><mask id="b" fill="#fff"><use xlink:href="#a"/></mask><use fill="#FFF" xlink:href="#a"/><g mask="url(#b)"><g opacity=".15" transform="matrix(1 0 0 -1 0 375)"><use fill="url(#c)" xlink:href="#d"/><use fill="#000" filter="url(#e)" xlink:href="#d"/></g><path d="M401.981-1H1441v121.776l-1.265-.347c-28.94-7.944-58.701-13.833-89.403-17.806-61.502-7.959-126.02-8.223-197.101-1.992-55.217 4.84-106.81 12.449-187.277 26.495-8.368 1.46-36.383 6.386-39.565 6.943-15.414 2.7-27.179 4.73-38.463 6.625-28.41 4.77-51.652 8.3-73.177 11.015-51.815 6.534-92.923 8.126-128.287 4.118C566.07 142.182 471.63 90.435 403.205.606L401.98-1z" stroke="url(#f)" stroke-width="2" transform="matrix(1 0 0 -1 0 375)"/></g></g></svg>