<svg width="500" height="500" xmlns="http://www.w3.org/2000/svg" xmlns:xlink="http://www.w3.org/1999/xlink"><defs><linearGradient x1="50%" y1="0%" x2="50%" y2="100%" id="b"><stop stop-opacity="0" offset="0%"/><stop offset="100%"/></linearGradient><path id="a" d="M0 59h500v500H0z"/><linearGradient x1="50%" y1="50%" x2="50%" y2="100%" id="d"><stop stop-opacity="0" offset="0%"/><stop offset="100%"/></linearGradient><path d="M45 0c25.237 273.377 147.16 439.307 365.77 497.79 327.915 87.726 723.533-567.423 897.23-79.284V0H45z" id="e"/><filter x="-1.9%" y="-4.7%" width="103.8%" height="109.5%" filterUnits="objectBoundingBox" id="f"><feGaussianBlur stdDeviation="24" in="SourceAlpha" result="shadowBlurInner1"/><feOffset in="shadowBlurInner1" result="shadowOffsetInner1"/><feComposite in="shadowOffsetInner1" in2="SourceAlpha" operator="arithmetic" k2="-1" k3="1" result="shadowInnerInner1"/><feColorMatrix values="0 0 0 0 0 0 0 0 0 0 0 0 0 0 0 0 0 0 0.35 0" in="shadowInnerInner1"/></filter><linearGradient x1="44.791%" y1="107.482%" x2="100%" y2="102.768%" id="g"><stop stop-color="#36A7E5" stop-opacity="0" offset="0%"/><stop stop-color="#36A7E5" offset="100%"/></linearGradient><path d="M648.608 0c-6.68 233.03 41.69 370.582 145.112 412.657C948.85 475.769 1051.257 42.104 1308 251.803V0H648.608z" id="h"/><filter x="-3.6%" y="-5.7%" width="107.3%" height="111.5%" filterUnits="objectBoundingBox" id="i"><feGaussianBlur stdDeviation="24" in="SourceAlpha" result="shadowBlurInner1"/><feOffset in="shadowBlurInner1" result="shadowOffsetInner1"/><feComposite in="shadowOffsetInner1" in2="SourceAlpha" operator="arithmetic" k2="-1" k3="1" result="shadowInnerInner1"/><feColorMatrix values="0 0 0 0 0 0 0 0 0 0 0 0 0 0 0 0 0 0 0.35 0" in="shadowInnerInner1"/></filter></defs><g transform="translate(0 -59)" fill="none" fill-rule="evenodd"><mask id="c" fill="#fff"><use xlink:href="#a"/></mask><use fill="#1E2C39" xlink:href="#a"/><use fill-opacity=".2" fill="url(#b)" xlink:href="#a"/><g mask="url(#c)"><g opacity=".2" transform="matrix(1 0 0 -1 -808 565)"><use fill="url(#d)" xlink:href="#e"/><use fill-opacity=".2" fill="#000" xlink:href="#e"/><use fill="#000" filter="url(#f)" xlink:href="#e"/></g><path d="M-1.355-1H1309v375.738l-1.561-1.06c-36.519-24.779-74.064-43.143-112.791-55.532-77.567-24.813-158.94-25.636-248.606-6.207-38.127 8.262-77.57 20.113-120.503 35.765-34.527 12.588-68.688 26.545-115.866 46.901-10.564 4.559-45.934 19.93-49.952 21.67-19.462 8.428-34.318 14.765-48.566 20.678-35.881 14.892-65.234 25.915-92.425 34.392-65.495 20.418-117.484 25.393-162.236 12.855C204.428 441.596 85.31 280.252-.956.294L-1.355-1z" stroke="url(#g)" stroke-width="2" transform="matrix(1 0 0 -1 -808 565)"/><g opacity=".2" transform="matrix(1 0 0 -1 -808 565)"><use fill="url(#d)" xlink:href="#h"/><use fill-opacity=".2" fill="#000" xlink:href="#h"/><use fill="#000" filter="url(#i)" xlink:href="#h"/></g></g></g></svg>