<svg width="63" height="70" xmlns="http://www.w3.org/2000/svg"><g stroke-width="3" fill="none" stroke-linecap="round" stroke-linejoin="round"><path d="M36.367 39.196h-25.88c-.237 0-.468.066-.669.192L1.5 44.631V12.525A5.029 5.029 0 0 1 6.525 7.5h29.817a5.029 5.029 0 0 1 5.025 5.025v21.67a5 5 0 0 1-5 5z" stroke="#1A237E"/><path d="M26.5 58.196h25.88c.237 0 .468.066.669.192l8.318 5.243V31.525a5.029 5.029 0 0 0-5.025-5.025H26.525a5.029 5.029 0 0 0-5.025 5.025v21.67a5 5 0 0 0 5 5z" stroke="#FF5722"/></g></svg>