<svg width="1440" height="339" xmlns="http://www.w3.org/2000/svg" xmlns:xlink="http://www.w3.org/1999/xlink"><defs><linearGradient x1="50%" y1="50%" x2="50%" y2="100%" id="a"><stop stop-opacity="0" offset="0%"/><stop offset="100%"/></linearGradient><path d="M0 7c28.774 177.749 167.784 285.636 417.03 323.662 373.87 57.04 824.93-368.937 1022.97-51.55V7H0z" id="b"/><filter x="-1.7%" y="-7.3%" width="103.3%" height="114.6%" filterUnits="objectBoundingBox" id="c"><feGaussianBlur stdDeviation="24" in="SourceAlpha" result="shadowBlurInner1"/><feOffset in="shadowBlurInner1" result="shadowOffsetInner1"/><feComposite in="shadowOffsetInner1" in2="SourceAlpha" operator="arithmetic" k2="-1" k3="1" result="shadowInnerInner1"/><feColorMatrix values="0 0 0 0 0 0 0 0 0 0 0 0 0 0 0 0 0 0 0.35 0" in="shadowInnerInner1"/></filter><linearGradient x1="50%" y1="100%" x2="50%" y2="0%" id="d"><stop stop-color="#1A237E" stop-opacity="0" offset="0%"/><stop stop-color="#1A237E" stop-opacity=".275" offset="27.508%"/><stop stop-color="#1A237E" offset="100%"/></linearGradient><linearGradient x1="0%" y1="0%" x2="100%" y2="100%" id="e"><stop stop-color="#FF5722" stop-opacity="0" offset="0%"/><stop stop-color="#FF5722" offset="100%"/></linearGradient></defs><g fill="none" fill-rule="evenodd"><g opacity=".2" transform="matrix(1 0 0 -1 0 339)"><use fill="url(#a)" xlink:href="#b"/><use fill-opacity=".2" fill="#000" xlink:href="#b"/><use fill="#000" filter="url(#c)" xlink:href="#b"/></g><path fill="url(#d)" d="M0 0h1440v329H0z" transform="matrix(1 0 0 -1 0 339)"/><path d="M197.165 113H1441v171.3l-1.308-.424c-34.67-11.234-70.322-19.561-107.1-25.18-73.674-11.253-150.96-11.627-236.108-2.816-66.143 6.844-127.946 17.603-224.337 37.464-10.024 2.065-43.582 9.03-47.393 9.818-18.465 3.817-32.558 6.688-46.074 9.367-34.033 6.745-61.872 11.737-87.656 15.575-62.066 9.24-111.307 11.49-153.667 5.823-144.19-19.29-257.277-92.436-339.197-219.385l-.995-1.542z" stroke="url(#e)" stroke-width="2" transform="matrix(1 0 0 -1 0 339)"/></g></svg>