<svg width="121" height="148" xmlns="http://www.w3.org/2000/svg" xmlns:xlink="http://www.w3.org/1999/xlink"><defs><linearGradient x1="50%" y1="50%" x2="50%" y2="100%" id="a"><stop stop-opacity="0" offset="0%"/><stop offset="100%"/></linearGradient><path d="M49 0c27.795 300.93 162.075 483.585 402.84 547.963C812.987 644.531 1248.7-76.65 1440 460.688V0H49z" id="b"/><filter x="-1.7%" y="-4.3%" width="103.5%" height="108.6%" filterUnits="objectBoundingBox" id="c"><feGaussianBlur stdDeviation="24" in="SourceAlpha" result="shadowBlurInner1"/><feOffset in="shadowBlurInner1" result="shadowOffsetInner1"/><feComposite in="shadowOffsetInner1" in2="SourceAlpha" operator="arithmetic" k2="-1" k3="1" result="shadowInnerInner1"/><feColorMatrix values="0 0 0 0 0 0 0 0 0 0 0 0 0 0 0 0 0 0 0.35 0" in="shadowInnerInner1"/></filter><linearGradient x1="-3.187%" y1="100%" x2="50%" y2="100%" id="d"><stop stop-color="#FF5722" stop-opacity="0" offset="0%"/><stop stop-color="#FF5722" offset="100%"/></linearGradient></defs><g fill="none" fill-rule="evenodd"><g opacity=".2" transform="matrix(1 0 0 -1 -129 455)"><use fill="url(#a)" xlink:href="#b"/><use fill-opacity=".2" fill="#000" xlink:href="#b"/><use fill="#000" filter="url(#c)" xlink:href="#b"/></g><path d="M-1.355-1H1441v413.022l-1.561-1.058c-40.211-27.263-81.555-47.468-124.2-61.098-85.413-27.3-175.015-28.206-273.747-6.83-41.979 9.088-85.406 22.126-132.676 39.345-38.014 13.847-75.624 29.2-127.565 51.593-11.63 5.015-50.57 21.923-54.993 23.837-21.426 9.27-37.78 16.24-53.466 22.745-39.5 16.38-71.812 28.504-101.743 37.828-72.088 22.455-129.305 27.926-178.551 14.14C225.127 485.671 94.008 308.22-.956.294L-1.355-1z" stroke="url(#d)" stroke-width="2" transform="matrix(1 0 0 -1 -129 455)"/></g></svg>