<svg width="1440" height="152" xmlns="http://www.w3.org/2000/svg" xmlns:xlink="http://www.w3.org/1999/xlink"><defs><linearGradient x1="50%" y1="50%" x2="50%" y2="100%" id="a"><stop stop-opacity="0" offset="0%"/><stop offset="100%"/></linearGradient><path d="M0 3c28.774 79.42 167.784 127.625 417.03 144.615C790.9 173.101 1241.96-17.229 1440 124.582V3H0z" id="b"/><filter x="-1.7%" y="-16.3%" width="103.3%" height="132.7%" filterUnits="objectBoundingBox" id="c"><feGaussianBlur stdDeviation="24" in="SourceAlpha" result="shadowBlurInner1"/><feOffset in="shadowBlurInner1" result="shadowOffsetInner1"/><feComposite in="shadowOffsetInner1" in2="SourceAlpha" operator="arithmetic" k2="-1" k3="1" result="shadowInnerInner1"/><feColorMatrix values="0 0 0 0 0 0 0 0 0 0 0 0 0 0 0 0 0 0 0.35 0" in="shadowInnerInner1"/></filter><linearGradient x1="50%" y1="100%" x2="50%" y2="0%" id="d"><stop stop-color="#1A237E" stop-opacity="0" offset="0%"/><stop stop-color="#1A237E" stop-opacity=".275" offset="27.508%"/><stop stop-color="#1A237E" offset="100%"/></linearGradient><linearGradient x1="0%" y1="0%" x2="100%" y2="100%" id="e"><stop stop-color="#FF5722" stop-opacity="0" offset="0%"/><stop stop-color="#FF5722" offset="100%"/></linearGradient></defs><g fill="none" fill-rule="evenodd"><g opacity=".2" transform="matrix(1 0 0 -1 0 152)"><use fill="url(#a)" xlink:href="#b"/><use fill-opacity=".2" fill="#000" xlink:href="#b"/><use fill="#000" filter="url(#c)" xlink:href="#b"/></g><path fill="url(#d)" d="M0 0h1440v147H0z" transform="matrix(1 0 0 -1 0 152)"/><path d="M195.794 50H1441v77.486l-1.143-.165c-34.696-5.014-70.376-8.73-107.182-11.237-73.724-5.022-151.057-5.189-236.247-1.258-66.167 3.053-127.984 7.852-224.391 16.71-136.224 12.518-136.367 12.53-181.094 15.5-62.02 4.117-111.213 5.12-153.513 2.596-144.066-8.595-257.068-41.19-338.999-97.81L195.794 50z" stroke="url(#e)" stroke-width="2" transform="matrix(1 0 0 -1 0 152)"/></g></svg>