<svg width="63" height="70" xmlns="http://www.w3.org/2000/svg"><g stroke-width="3" fill="none"><path d="M49.645 46.796c.254.535.388 1.117.388 1.712 0 1.065-.429 2.09-1.211 2.876-1.26 1.267-3.151 1.556-4.602.866.254.535.388 1.117.388 1.712 0 1.065-.429 2.09-1.211 2.876-1.62 1.629-4.124 1.629-5.744 0l-1.34-1.348v-.619c0-1.044-.365-1.915-1.114-2.578-.73-.734-1.632-1.116-2.553-1.116h-1.9l.148-1.635c.09-1.004-.284-1.992-1.12-2.833-.73-.734-1.632-1.116-2.553-1.116h-1.758v-1.889c0-1.044-.365-1.915-1.114-2.578-.73-.735-1.632-1.116-2.553-1.116h-1.9l.148-1.636c.09-1.003-.284-1.992-1.12-2.832-.73-.735-1.632-1.116-2.553-1.116-.985 0-1.809.335-2.553.986l-4.035 4.056-2.81-2.825c-3.183-2.544-4.89-6.505-4.89-10.86 0-4.215 1.614-8.214 4.57-11.186 6.14-6.173 16.137-6.173 22.252-.024l3.944 3.784-7.923 7.965c-.926.93-1.501 2.253-1.501 3.487 0 1.342.52 2.597 1.501 3.487.965.97 2.243 1.506 3.457 1.506 1.252 0 2.603-.554 3.458-1.506l7.909-7.951 14.497 14.574c.782.787 1.211 1.811 1.211 2.876 0 1.1-.433 2.353-1.211 3.135-1.26 1.267-3.151 1.556-4.602.866z" stroke="#1A237E"/><path d="M11.463 47.152c-1.065 0-2.088-.433-2.872-1.222-.783-.786-1.212-1.81-1.212-2.876 0-1.064.43-2.089 1.212-2.875l4.65-4.675c.814-.82 1.715-1.221 2.872-1.221 1.064 0 2.087.433 2.871 1.22 1.616 1.625 1.616 4.129 0 5.753l-4.65 4.674c-.784.789-1.807 1.222-2.871 1.222zm5.554 5.454c-1.065 0-2.088-.434-2.872-1.222-1.616-1.624-1.616-4.127 0-5.751l4.65-4.675c.815-.82 1.715-1.221 2.872-1.221 1.064 0 2.087.433 2.871 1.22.783.788 1.212 1.812 1.212 2.877 0 1.064-.429 2.089-1.212 2.875l-4.65 4.675c-.784.788-1.807 1.222-2.871 1.222zm5.425 5.583c-1.065 0-2.088-.433-2.872-1.221-.783-.787-1.212-1.811-1.212-2.876s.43-2.089 1.212-2.876l4.65-4.674c.815-.82 1.715-1.222 2.872-1.222 1.064 0 2.087.433 2.871 1.222 1.616 1.624 1.616 4.127 0 5.751l-4.65 4.675c-.784.788-1.807 1.221-2.871 1.221zm8.296 4.363c-1.479 1.487-4.058 1.487-5.743 0-1.616-1.624-1.616-4.128 0-5.752l4.65-4.675c.815-.819 1.715-1.22 2.872-1.22 1.064 0 2.087.432 2.871 1.22.783.787 1.212 1.811 1.212 2.876s-.429 2.09-1.212 2.876l-4.65 4.675zm9.012-36.46l-7.59 7.632c-2.145 2.156-5.589 2.156-7.553 0-1.05-1.056-1.599-2.343-1.599-3.785 0-1.482.573-2.9 1.642-3.828l10.525-10.58c5.99-6.31 16.005-6.354 22.172-.155 2.987 3.004 4.57 6.888 4.57 11.187 0 4.215-1.614 8.215-4.57 11.186l-3.001 3.017L39.75 26.093z" stroke="#FF5722" fill="#FFF"/></g></svg>