<svg width="15" height="24" xmlns="http://www.w3.org/2000/svg"><defs><linearGradient x1="17.624%" y1="67.882%" x2="119.244%" y2="33.253%" id="a"><stop stop-color="#FF542E" offset="0%"/><stop stop-color="#FF6C5F" offset="58%"/><stop stop-color="#F7A91E" offset="100%"/></linearGradient></defs><path d="M719.322 56.188a4.11 4.11 0 0 0 1.511 5.108 4.268 4.268 0 0 0 5.378-.557 4.097 4.097 0 0 0 .399-5.304c-1.19-1.63-3.394-2.19-5.237-1.328l-4.194-4.137 4.127-4.053c1.855.83 4.048.237 5.209-1.41a4.094 4.094 0 0 0-.484-5.293 4.266 4.266 0 0 0-5.38-.475 4.105 4.105 0 0 0-1.434 5.123L713 49.97l6.322 6.218z" transform="translate(-713 -38)" fill="url(#a)"/></svg>