<svg xmlns="http://www.w3.org/2000/svg" viewBox="0 0 174.9 24.8"><defs><style>.c{fill:#ff542e}.ay{fill:#ff6c5f}.df{isolation:isolate}.dg{fill:#fff}</style><clipPath id="a" transform="translate(0 .4)"><path d="M6.3 18.2a4.1 4.1 0 0 0 1.5 5.1 4.3 4.3 0 0 0 5.4-.6 4.1 4.1 0 0 0 .4-5.3 4.2 4.2 0 0 0-5.2-1.3L4.2 12l4.1-4.1a4.2 4.2 0 0 0 5.2-1.4 4 4 0 0 0-.5-5.3 4.2 4.2 0 0 0-6.8 4.7L0 12z" fill="none"/></clipPath></defs><g clip-path="url(#a)"><path class="c" d="M0 4.3l4.2 20.5H0V4.3z"/><path class="c" d="M0 3.3l4.4 21.5h-.2L0 4.3v-1z"/><path fill="#ff552f" d="M0 2.4l4.6 22.4h-.2L0 3.3v-.9z"/><path fill="#ff5530" d="M0 1.4l4.8 23.4h-.2L0 2.4v-1z"/><path fill="#ff5631" d="M0 .5l5 24.3h-.2L0 1.4V.5z"/><path fill="#ff5632" d="M.1 0l5.1 24.8H5L0 .5V0h.1z"/><path fill="#ff5733" d="M.3 0l5.1 24.8h-.2L.1 0h.2z"/><path fill="#ff5734" d="M.5 0l5.1 24.8h-.2L.3 0h.2z"/><path fill="#ff5835" d="M.7 0l5 24.8h-.1L.5 0h.2z"/><path fill="#ff5836" d="M.9 0l5 24.8h-.2L.7 0h.2z"/><path fill="#ff5937" d="M1.1 0l5 24.8h-.2L.9 0h.2z"/><path fill="#ff5938" d="M1.3 0l5 24.8h-.2L1.1 0h.2z"/><path fill="#ff5a39" d="M1.4 0l5.1 24.8h-.2L1.3 0h.1z"/><path fill="#ff5a3a" d="M1.6 0l5.1 24.8h-.2L1.4 0h.2z"/><path fill="#ff5b3b" d="M1.8 0l5.1 24.8h-.2L1.6 0h.2z"/><path fill="#ff5b3c" d="M2 0l5.1 24.8h-.2L1.8 0H2z"/><path fill="#ff5c3d" d="M2.2 0l5.1 24.8h-.2L2 0h.2z"/><path fill="#ff5c3e" d="M2.4 0l5.1 24.8h-.2L2.2 0h.2z"/><path fill="#ff5d3f" d="M2.6 0l5.1 24.8h-.2L2.4 0h.2z"/><path fill="#ff5d40" d="M2.8 0l5.1 24.8h-.2L2.6 0h.2z"/><path fill="#ff5e41" d="M3 0l5.1 24.8h-.2L2.8 0H3z"/><path fill="#ff5e42" d="M3.2 0l5.1 24.8h-.2L3 0h.2z"/><path fill="#ff5f43" d="M3.4 0l5.1 24.8h-.2L3.2 0h.2z"/><path fill="#ff5f44" d="M3.6 0l5 24.8h-.1L3.4 0h.2z"/><path fill="#ff6045" d="M3.8 0l5 24.8h-.2L3.6 0h.2z"/><path fill="#ff6047" d="M4 0l5 24.8h-.2L3.8 0H4z"/><path fill="#ff6148" d="M4.2 0l5 24.8H9L4 0h.2z"/><path fill="#ff6149" d="M4.3 0l5.1 24.8h-.2L4.2 0h.1z"/><path fill="#ff624a" d="M4.5 0l5.1 24.8h-.2L4.3 0h.2z"/><path fill="#ff624b" d="M4.7 0l5.1 24.8h-.2L4.5 0h.2z"/><path fill="#ff634c" d="M4.9 0L10 24.8h-.2L4.7 0h.2z"/><path fill="#ff634d" d="M5.1 0l5.1 24.8H10L4.9 0h.2z"/><path fill="#ff644e" d="M5.3 0l5.1 24.8h-.2L5.1 0h.2z"/><path fill="#ff644f" d="M5.5 0l5.1 24.8h-.2L5.3 0h.2z"/><path fill="#ff6550" d="M5.7 0l5.1 24.8h-.2L5.5 0h.2z"/><path fill="#ff6551" d="M5.9 0L11 24.8h-.2L5.7 0h.2z"/><path fill="#ff6652" d="M6.1 0l5.1 24.8H11L5.9 0h.2z"/><path fill="#ff6653" d="M6.3 0l5.1 24.8h-.2L6.1 0h.2z"/><path fill="#ff6754" d="M6.5 0l5 24.8h-.1L6.3 0h.2z"/><path fill="#ff6755" d="M6.7 0l5 24.8h-.2L6.5 0h.2z"/><path fill="#ff6856" d="M6.9 0l5 24.8h-.2L6.7 0h.2z"/><path fill="#ff6857" d="M7.1 0l5 24.8h-.2L6.9 0h.2z"/><path fill="#ff6958" d="M7.2 0l5.1 24.8h-.2L7.1 0h.1z"/><path fill="#ff6959" d="M7.4 0l5.1 24.8h-.2L7.2 0h.2z"/><path fill="#ff6a5a" d="M7.6 0l5.1 24.8h-.2L7.4 0h.2z"/><path fill="#ff6a5b" d="M7.8 0l5.1 24.8h-.2L7.6 0h.2z"/><path fill="#ff6b5c" d="M8 0l5.1 24.8h-.2L7.8 0H8z"/><path fill="#ff6b5d" d="M8.2 0l5.1 24.8h-.2L8 0h.2z"/><path fill="#ff6c5e" d="M8.4 0l5.1 24.8h-.2L8.2 0h.2z"/><path class="ay" d="M8.6 0l5.1 24.8h-.2L8.4 0h.2z"/><path class="ay" d="M8.7 0l5.1 24.8h-.1L8.6 0h.1z"/><path fill="#ff6d5e" d="M8.8 0l5.1 24.8h-.1L8.7 0h.1z"/><path fill="#ff6e5d" d="M8.9 0L14 24.8h-.1L8.8 0h.1z"/><path fill="#ff6f5c" d="M9 0l5.1 24.8H14L8.9 0H9z"/><path fill="#ff705b" d="M9.1 0l5.1 24.8h-.1L9 0h.1z"/><path fill="#fe715a" d="M9.2 0l5.1 24.8h-.1L9.1 0h.1z"/><path fill="#fe7259" d="M9.3 0l5.1 24.8h-.1L9.2 0h.1z"/><path fill="#fe7358" d="M9.4 0l5.1 24.8h-.1L9.3 0h.1z"/><path fill="#fe7457" d="M9.5 0l5.1 24.8h-.1L9.4 0h.1z"/><path fill="#fe7556" d="M9.7 0l5 24.8h-.1L9.5 0h.2z"/><path fill="#fe7655" d="M9.8 0l5 24.7v.1h-.1L9.7 0h.1z"/><path fill="#fe7654" d="M9.9 0l4.9 24.1v.6L9.8 0h.1z"/><path fill="#fe7753" d="M10 0l4.8 23.6v.5L9.9 0h.1z"/><path fill="#fd7852" d="M10.1 0l4.7 23.1v.5L10 0h.1z"/><path fill="#fd7951" d="M10.2 0l4.6 22.6v.5L10.1 0h.1z"/><path fill="#fd7a50" d="M10.3 0l4.5 22.1v.5L10.2 0h.1z"/><path fill="#fd7b4f" d="M10.4 0l4.4 21.6v.5L10.3 0h.1z"/><path fill="#fd7c4e" d="M10.5 0l4.3 21v.6L10.4 0h.1z"/><path fill="#fd7d4d" d="M10.6 0l4.2 20.5v.5L10.5 0h.1z"/><path fill="#fd7e4c" d="M10.7 0l4.1 20v.5L10.6 0h.1z"/><path fill="#fd7f4b" d="M10.8 0l4 19.5v.5L10.7 0h.1z"/><path fill="#fc804a" d="M10.9 0l3.9 19v.5L10.8 0h.1z"/><path fill="#fc8149" d="M11 0l3.8 18.5v.5L10.9 0h.1z"/><path fill="#fc8248" d="M11.1 0l3.7 17.9v.6L11 0h.1z"/><path fill="#fc8347" d="M11.2 0l3.6 17.4v.5L11.1 0h.1z"/><path fill="#fc8446" d="M11.3 0l3.5 16.9v.5L11.2 0h.1z"/><path fill="#fc8545" d="M11.4 0l3.4 16.4v.5L11.3 0h.1z"/><path fill="#fc8644" d="M11.6 0l3.2 15.9v.5L11.4 0h.2z"/><path fill="#fc8743" d="M11.7 0l3.1 15.4v.5L11.6 0h.1z"/><path fill="#fb8842" d="M11.8 0l3 14.8v.6L11.7 0h.1z"/><path fill="#fb8941" d="M11.9 0l2.9 14.3v.5L11.8 0h.1z"/><path fill="#fb8a40" d="M12 0l2.8 13.8v.5L11.9 0h.1z"/><path fill="#fb8b3f" d="M12.1 0l2.7 13.3v.5L12 0h.1z"/><path fill="#fb8b3d" d="M12.2 0l2.6 12.8v.5L12.1 0h.1z"/><path fill="#fb8c3c" d="M12.3 0l2.5 12.3v.5L12.2 0h.1z"/><path fill="#fb8d3b" d="M12.4 0l2.4 11.7v.6L12.3 0h.1z"/><path fill="#fb8e3a" d="M12.5 0l2.3 11.2v.5L12.4 0h.1z"/><path fill="#fa8f39" d="M12.6 0l2.2 10.7v.5L12.5 0h.1z"/><path fill="#fa9038" d="M12.7 0l2.1 10.2v.5L12.6 0h.1z"/><path fill="#fa9137" d="M12.8 0l2 9.7v.5L12.7 0h.1z"/><path fill="#fa9236" d="M12.9 0l1.9 9.2v.5l-2-9.7h.1z"/><path fill="#fa9335" d="M13 0l1.8 8.7v.5L12.9 0h.1z"/><path fill="#fa9434" d="M13.1 0l1.7 8.1v.6L13 0h.1z"/><path fill="#fa9533" d="M13.2 0l1.6 7.6v.5L13.1 0h.1z"/><path fill="#fa9632" d="M13.3 0l1.5 7.1v.5L13.2 0h.1z"/><path fill="#f99731" d="M13.5 0l1.3 6.6v.5L13.3 0h.2z"/><path fill="#f99830" d="M13.6 0l1.2 6.1v.5L13.5 0h.1z"/><path fill="#f9992f" d="M13.7 0l1.1 5.6v.5L13.6 0h.1z"/><path fill="#f99a2e" d="M13.8 0l1 5v.6L13.7 0h.1z"/><path fill="#f99b2d" d="M13.9 0l.9 4.5V5l-1-5h.1z"/><path fill="#f99c2c" d="M14 0l.8 4v.5L13.9 0h.1z"/><path fill="#f99d2b" d="M14.1 0l.7 3.5V4L14 0h.1z"/><path fill="#f99e2a" d="M14.2 0l.6 3v.5L14.1 0h.1z"/><path fill="#f89f29" d="M14.3 0l.5 2.5V3l-.6-3h.1z"/><path fill="#f89f28" d="M14.4 0l.4 1.9v.6L14.3 0h.1z"/><path fill="#f8a027" d="M14.5 0l.3 1.4v.5L14.4 0h.1z"/><path fill="#f8a126" d="M14.6 0l.2.9v.5L14.5 0h.1z"/><path fill="#f8a225" d="M14.7 0l.1.4v.5l-.2-.9h.1z"/><path fill="#f8a324" d="M14.8.4l-.1-.4h.1v.4z"/></g><g class="df"><g class="df"><path class="dg" d="M30.5 20.4V6.1h4.6a20.2 20.2 0 0 1 3.4.2 3.8 3.8 0 0 1 2.1 1.4 4.7 4.7 0 0 1 .8 2.8 3.8 3.8 0 0 1-.5 2.2 3.3 3.3 0 0 1-1.2 1.4 3.4 3.4 0 0 1-1.5.7l-3 .2h-1.9v5.4zm2.8-11.9v4.1h1.6a5.6 5.6 0 0 0 2.3-.3 1.3 1.3 0 0 0 .9-.7 2 2 0 0 0 .3-1.1 2 2 0 0 0-.4-1.3 2.3 2.3 0 0 0-1.2-.6h-3.5zm10.1 6.6a5.4 5.4 0 0 1 .7-2.7 3.9 3.9 0 0 1 1.9-1.9 5 5 0 0 1 2.7-.7 5.1 5.1 0 0 1 5.4 5.4 5.1 5.1 0 0 1-5.4 5.4A6.6 6.6 0 0 1 46 20a4.4 4.4 0 0 1-1.9-1.9 5.6 5.6 0 0 1-.7-3zm2.8.1a3.6 3.6 0 0 0 .7 2.4 2.4 2.4 0 0 0 3.6 0 3.6 3.6 0 0 0 .8-2.4 3.2 3.2 0 0 0-.8-2.3 2.2 2.2 0 0 0-3.6 0 3.2 3.2 0 0 0-.7 2.3zm10.3 5.2V6.1h2.7v14.3zM61 10h2.9l2.5 7.4 2.4-7.4h2.8L68 20l-.7 1.8a6 6 0 0 1-.7 1.4 2.7 2.7 0 0 1-.7.8l-1.1.4a3 3 0 0 1-1.4.2 3.9 3.9 0 0 1-1.5-.2l-.3-2.1h1.2a2 2 0 0 0 1.4-.5 3.5 3.5 0 0 0 .7-1.5zm12.4 0H76v1.4a3.9 3.9 0 0 1 3.2-1.6 3.1 3.1 0 0 1 1.7.4 3.4 3.4 0 0 1 1.2 1.2 7.9 7.9 0 0 1 1.5-1.2 3.3 3.3 0 0 1 1.7-.4 3.3 3.3 0 0 1 3.1 1.8 6.1 6.1 0 0 1 .3 2.2v6.6h-2.8v-5.9a6.9 6.9 0 0 0-.2-2 1.4 1.4 0 0 0-1.2-.6 2 2 0 0 0-1.1.3 2.1 2.1 0 0 0-.7 1.1 5.1 5.1 0 0 0-.3 2.1v5h-2.7v-5.7a6.6 6.6 0 0 0-.2-1.9 1 1 0 0 0-.4-.7l-.8-.2a2.4 2.4 0 0 0-1.2.3 2.3 2.3 0 0 0-.7 1 6.5 6.5 0 0 0-.2 2.2v5h-2.8zm24.3 7.1l2.7.5a4.6 4.6 0 0 1-4.5 3 4.7 4.7 0 0 1-4-1.7 6.1 6.1 0 0 1-1-3.6 5.5 5.5 0 0 1 1.3-4 4.3 4.3 0 0 1 3.4-1.5 4.7 4.7 0 0 1 3.7 1.5c.9 1 1.3 2.6 1.2 4.7h-6.8a2.7 2.7 0 0 0 .6 1.9 2.1 2.1 0 0 0 1.6.7 1.5 1.5 0 0 0 1.1-.4 2.3 2.3 0 0 0 .7-1.1zm.1-2.8a2.4 2.4 0 0 0-.6-1.8 2 2 0 0 0-1.4-.6 2 2 0 0 0-1.5.6 2.8 2.8 0 0 0-.6 1.8zm7.8 6.1h-2.7V10h2.5v1.5a6.3 6.3 0 0 1 1.2-1.4l1.2-.3a4.1 4.1 0 0 1 1.8.5l-.8 2.4a2.4 2.4 0 0 0-1.3-.4 1.5 1.5 0 0 0-1.6 1.4 12.8 12.8 0 0 0-.3 3.5zm11.2-14.3h5.3a10.4 10.4 0 0 1 2.8.3 3.9 3.9 0 0 1 2.1 1.3 5.9 5.9 0 0 1 1.4 2.3 10.9 10.9 0 0 1 .4 3.4 8.7 8.7 0 0 1-.4 3 6.6 6.6 0 0 1-1.5 2.6 6.8 6.8 0 0 1-2.1 1.1 8.1 8.1 0 0 1-2.5.3h-5.5zm2.9 2.4V18h3.9l1.2-.6a3.7 3.7 0 0 0 .8-1.4 9.3 9.3 0 0 0 .3-2.6 8.4 8.4 0 0 0-.3-2.6 2.8 2.8 0 0 0-.9-1.4 3.2 3.2 0 0 0-1.3-.7h-3.7zm11.8.1V6.1h2.8v2.5zm0 11.8V10h2.8v10.4zm5.6.7l3.1.4c.1.3.2.6.4.7a1.7 1.7 0 0 0 1.2.3 3.5 3.5 0 0 0 1.6-.3 1.8 1.8 0 0 0 .5-.7 3.5 3.5 0 0 0 .2-1.3v-1.5a3.8 3.8 0 0 1-3.1 1.7 3.8 3.8 0 0 1-3.3-1.8 5.5 5.5 0 0 1-1-3.4 5.4 5.4 0 0 1 1.3-4 4 4 0 0 1 6.3.3V10h2.5v9.3a9.4 9.4 0 0 1-.3 2.8 3.7 3.7 0 0 1-.8 1.4 3.6 3.6 0 0 1-1.5.8 7.5 7.5 0 0 1-2.3.3 5.7 5.7 0 0 1-3.7-.9 2.7 2.7 0 0 1-1.1-2.3zm2.4-6.1a3.3 3.3 0 0 0 .7 2.4 1.9 1.9 0 0 0 1.5.8 2.1 2.1 0 0 0 1.7-.8 3.2 3.2 0 0 0 .7-2.3 3.8 3.8 0 0 0-.6-2.4 2.3 2.3 0 0 0-1.7-.8 1.9 1.9 0 0 0-1.6.8 3.2 3.2 0 0 0-.7 2.3zm10.3-6.4V6.1h2.7v2.5zm0 11.8V10h2.7v10.4zM160.3 10v2.2h-1.8v5.7q0 .2.3.3a.5.5 0 0 0 .4.2l1.1-.3.3 2.1a5.4 5.4 0 0 1-2.2.4 3.2 3.2 0 0 1-1.4-.2 1.9 1.9 0 0 1-.8-.7 2.3 2.3 0 0 1-.4-1 9.3 9.3 0 0 1-.1-2v-4.5h-1.3V10h1.3V8l2.8-1.6V10zm4.2 3.2l-2.5-.5a4 4 0 0 1 1.5-2.2 5.1 5.1 0 0 1 3-.7 6.9 6.9 0 0 1 2.8.4 2.6 2.6 0 0 1 1.2 1.1 5.1 5.1 0 0 1 .4 2.5V17a10.4 10.4 0 0 0 .1 2 4.8 4.8 0 0 0 .5 1.4h-2.7l-.3-.8a.4.4 0 0 0-.1-.3 6.5 6.5 0 0 1-1.5 1 4.7 4.7 0 0 1-1.7.3 3.7 3.7 0 0 1-2.5-.8 2.9 2.9 0 0 1-.5-3.8 2.3 2.3 0 0 1 1.1-1.1l2.2-.6a12.4 12.4 0 0 0 2.7-.7v-.2a1.5 1.5 0 0 0-.4-1.2 2.6 2.6 0 0 0-1.5-.3 1.8 1.8 0 0 0-1.1.3 2 2 0 0 0-.7 1zm3.7 2.2l-1.7.4-1.5.5a1.4 1.4 0 0 0-.5 1 1.3 1.3 0 0 0 .4 1 1.5 1.5 0 0 0 1.1.4 2.4 2.4 0 0 0 1.4-.5 1.3 1.3 0 0 0 .7-.9 4.2 4.2 0 0 0 .1-1.3z"/></g><g class="df"><path class="dg" d="M172.1 20.4V6.1h2.8v14.3z"/></g></g></svg>