<svg width="63" height="72" xmlns="http://www.w3.org/2000/svg"><g fill="none"><path d="M45.445 8.737a23.956 23.956 0 0 0-24.423-2.584A23.861 23.861 0 0 0 7.198 26.408C1.149 32.158-1.252 37.756.624 41.81c1.567 3.387 5.831 5.212 12.089 5.212.51 0 1.035-.011 1.574-.035.72-.034 1.465-.099 2.214-.175a23.935 23.935 0 0 0 3.813 2.415v2.582h-1.199c-.662 0-1.199.536-1.199 1.196V64.97c0 .66.537 1.197 1.2 1.197h23.983c.662 0 1.2-.536 1.2-1.197V53.004c0-.66-.538-1.196-1.2-1.196h-1.2v-2.582a24.025 24.025 0 0 0 13.149-20.144c.568-.54 1.12-1.085 1.632-1.632 4.861-5.194 6.606-10.072 4.91-13.735-1.886-4.078-7.763-5.878-16.145-4.978zM2.806 40.807c-1.24-2.682.4-6.701 4.407-11.009A23.98 23.98 0 0 0 14.008 44.6c-5.903.225-9.979-1.14-11.202-3.794zm17.22 5.512a64.557 64.557 0 0 0 9.882-2.62v3.442a6.009 6.009 0 0 0-4.677 4.667h-2.518v-3.331c0-.466-.27-.888-.693-1.085a21.487 21.487 0 0 1-1.993-1.073zm11.081 3.096c1.52.006 2.87.964 3.377 2.393H27.73a3.597 3.597 0 0 1 3.377-2.393zM41.9 63.774H20.314v-3.59H41.9v3.59zm0-5.983H20.314V54.2H41.9v3.59zm-1.705-10.399a1.196 1.196 0 0 0-.694 1.085v3.33h-2.518a6.009 6.009 0 0 0-4.677-4.666v-4.32a80.883 80.883 0 0 0 4.834-2.024 71.171 71.171 0 0 0 15.24-9.364 21.652 21.652 0 0 1-12.185 15.96zm12.498-19.396a65.67 65.67 0 0 1-16.55 10.624 77.563 77.563 0 0 1-3.827 1.63v-6.39h3.597c4.634-.006 8.39-3.753 8.395-8.377 0-.66-.537-1.196-1.2-1.196h-4.806a8.37 8.37 0 0 0-5.996 2.526v-4.92h-2.398V31.6a8.37 8.37 0 0 0-5.996-2.526h-4.797c-.662 0-1.199.536-1.199 1.196.005 4.624 3.76 8.371 8.394 8.376h3.598v2.524a59.608 59.608 0 0 1-12.685 3.15c-7.641-6.425-9.86-17.245-5.36-26.148 4.5-8.903 14.538-13.557 24.258-11.246 9.721 2.31 16.578 10.98 16.572 20.951v.12zm-20.267 3.47a6.002 6.002 0 0 1 5.876-4.786h3.478a6.002 6.002 0 0 1-5.876 4.786h-3.478zm-2.638 4.786H26.31a6.002 6.002 0 0 1-5.876-4.786h3.478a6.002 6.002 0 0 1 5.876 4.786zm25.195-10.5a23.843 23.843 0 0 0-6.955-14.82c5.96-.276 10.138 1.077 11.392 3.786 1.228 2.668-.389 6.687-4.437 11.034z" fill="#1A237E"/><path d="M36.535 9.568c5.639 1.721 10.272 6.195 12.599 12.164l-2.22 1.079c-2.036-5.224-6.09-9.14-11.024-10.649l.645-2.594zm12.118 17.027a10.892 10.892 0 0 0-.303-1.473l1.544-.42c.155.553.271 1.116.348 1.684l-1.589.209zm-18.33-9.46h1.703v1.703h-1.703v-1.703zm0-4.892h1.703v1.703h-1.703v-1.703zm17.135 55.553V62.54h1.892v5.255c0 2.322-1.694 4.204-3.784 4.204h-3.784v-2.102h3.784c1.045 0 1.892-.941 1.892-2.102zM25.539 2.036C18.436 3.851 12.466 7.87 8.889 13.243l-2.269-1.02C10.523 6.361 17.036 1.978 24.785 0l.754 2.036zM3.836 18.656a13.78 13.78 0 0 1 .65-1.52l1.242.498c-.227.454-.426.92-.595 1.393l-1.297-.371zM47.35 56.865h1.703v1.703H47.35v-1.703z" fill="#FF5722"/></g></svg>