<svg width="315" height="200" xmlns="http://www.w3.org/2000/svg" xmlns:xlink="http://www.w3.org/1999/xlink"><defs><filter x="-10.5%" y="-33.3%" width="121%" height="166.7%" filterUnits="objectBoundingBox" id="a"><feOffset dy="18" in="SourceAlpha" result="shadowOffsetOuter1"/><feGaussianBlur stdDeviation="18" in="shadowOffsetOuter1" result="shadowBlurOuter1"/><feColorMatrix values="0 0 0 0 0 0 0 0 0 0 0 0 0 0 0 0 0 0 0.15 0" in="shadowBlurOuter1" result="shadowMatrixOuter1"/><feMerge><feMergeNode in="shadowMatrixOuter1"/><feMergeNode in="SourceGraphic"/></feMerge></filter><path d="M6 0h303a6 6 0 0 1 6 6v303a6 6 0 0 1-6 6H6a6 6 0 0 1-6-6V6a6 6 0 0 1 6-6z" id="b"/><linearGradient x1="29.508%" y1="83.546%" x2="69.124%" y2="-16.291%" id="d"><stop stop-opacity="0" offset="0%"/><stop offset="100%"/></linearGradient></defs><g fill="none" fill-rule="evenodd"><path stroke-opacity=".2" stroke="#000" fill="#FFF" d="M-220-216h1440v635H-220z"/><g filter="url(#a)"><mask id="c" fill="#fff"><use xlink:href="#b"/></mask><use stroke="#E6E6E6" fill="#FFF" xlink:href="#b"/><g mask="url(#c)"><path fill="#1A237E" d="M0 0h315v200H0z"/><path d="M0 5.688C33.471-4.959 65.717-.659 96.738 18.587 143.27 47.457 143.368 100 208.02 100c43.1 0 78.76 33.333 106.98 100H0V5.688z" fill="url(#d)" opacity=".5"/></g></g></g></svg>