<?xml version="1.0" encoding="UTF-8"?>
<svg width="1440px" height="339px" viewBox="0 0 1440 339" version="1.1" xmlns="http://www.w3.org/2000/svg" xmlns:xlink="http://www.w3.org/1999/xlink">
    <!-- Generator: Sketch 52.4 (67378) - http://www.bohemiancoding.com/sketch -->
    <title>Group 20</title>
    <desc>Created with Sketch.</desc>
    <defs>
        <linearGradient x1="50%" y1="50%" x2="50%" y2="100%" id="linearGradient-1">
            <stop stop-color="#000000" stop-opacity="0" offset="0%"></stop>
            <stop stop-color="#000000" offset="100%"></stop>
        </linearGradient>
        <path d="M0,7 C28.7740094,184.748759 167.784074,292.63616 417.030194,330.662203 C790.899373,387.701266 1241.96023,-38.2751654 1440,279.111809 C1440,279.111809 1440,188.407872 1440,7 L0,7 Z" id="path-2"></path>
        <filter x="-1.7%" y="-7.3%" width="103.3%" height="114.6%" filterUnits="objectBoundingBox" id="filter-3">
            <feGaussianBlur stdDeviation="24" in="SourceAlpha" result="shadowBlurInner1"></feGaussianBlur>
            <feOffset dx="0" dy="0" in="shadowBlurInner1" result="shadowOffsetInner1"></feOffset>
            <feComposite in="shadowOffsetInner1" in2="SourceAlpha" operator="arithmetic" k2="-1" k3="1" result="shadowInnerInner1"></feComposite>
            <feColorMatrix values="0 0 0 0 0   0 0 0 0 0   0 0 0 0 0  0 0 0 0.35 0" type="matrix" in="shadowInnerInner1"></feColorMatrix>
        </filter>
        <linearGradient x1="50%" y1="100%" x2="50%" y2="3.061617e-15%" id="linearGradient-4">
            <stop stop-color="#1A237E" stop-opacity="0" offset="0%"></stop>
            <stop stop-color="#1A237E" stop-opacity="0.275082237" offset="27.5082237%"></stop>
            <stop stop-color="#1A237E" offset="100%"></stop>
        </linearGradient>
        <linearGradient x1="0%" y1="0%" x2="100%" y2="100%" id="linearGradient-5">
            <stop stop-color="#FF5722" stop-opacity="0" offset="0%"></stop>
            <stop stop-color="#FF5722" offset="100%"></stop>
        </linearGradient>
    </defs>
    <g id="Page-1" stroke="none" stroke-width="1" fill="none" fill-rule="evenodd">
        <g id="Contact" transform="translate(0.000000, -97.000000)">
            <g id="header" transform="translate(0.000000, 75.000000)">
                <g id="Group-20" transform="translate(720.000000, 193.000000) scale(1, -1) translate(-720.000000, -193.000000) translate(0.000000, 25.000000)">
                    <g id="Path-2" opacity="0.200000003">
                        <use fill="url(#linearGradient-1)" fill-rule="evenodd" xlink:href="#path-2"></use>
                        <use fill-opacity="0.2" fill="#000000" fill-rule="evenodd" xlink:href="#path-2"></use>
                        <use fill="black" fill-opacity="1" filter="url(#filter-3)" xlink:href="#path-2"></use>
                    </g>
                    <polygon id="Rectangle-3" fill="url(#linearGradient-4)" points="0 0 1440 0 1440 329 0 329"></polygon>
                    <path d="M197.164572,113 L1441,113 L1441,114 C1441,191.423664 1441,191.423664 1441,240.693268 C1441,260.049184 1441,260.049184 1441,272.366585 C1441,277.205564 1441,277.205564 1441,280.284914 C1441,282.48445 1441,282.48445 1441,282.924357 L1441,284.299564 L1439.69176,283.875665 C1405.02201,272.641912 1369.36997,264.314772 1332.5919,258.696736 C1258.91781,247.442645 1181.63118,247.069352 1096.48438,255.879586 C1030.34073,262.723542 968.537938,273.482866 872.147311,293.343872 C862.123476,295.409254 828.564785,302.373527 824.753731,303.161555 C806.289488,306.979488 792.196438,309.850231 778.68022,312.528981 C744.647315,319.27389 716.807988,324.266011 691.023736,328.104493 C628.95772,337.344216 579.716742,339.594539 537.356517,333.927271 C393.166718,314.63648 280.079908,241.491485 198.159756,114.542208 L197.164572,113 Z" id="Path-2-Copy" stroke="url(#linearGradient-5)" stroke-width="2"></path>
                </g>
            </g>
        </g>
    </g>
</svg>