<?xml version="1.0" encoding="UTF-8"?>
<svg width="63px" height="70px" viewBox="0 0 63 70" version="1.1" xmlns="http://www.w3.org/2000/svg" xmlns:xlink="http://www.w3.org/1999/xlink">
    <!-- Generator: Sketch 51.3 (57544) - http://www.bohemiancoding.com/sketch -->
    <title>icon/discovery</title>
    <desc>Created with Sketch.</desc>
    <defs></defs>
    <g id="icon/discovery" stroke="none" stroke-width="1" fill="none" fill-rule="evenodd">
        <g id="Group" transform="translate(0.000000, 4.000000)" stroke-width="3">
            <rect id="Rectangle" stroke="#1A237E" x="22" y="54" width="19" height="8"></rect>
            <path d="M39.7802734,53.1713867 C39.7802734,44.9692383 47.9584961,44.9692383 47.9584961,32 C47.9584961,23.163444 40.7950521,16 31.9584961,16 C23.1219401,16 15,23.163444 15,32 C15,44.456543 23.2124023,44.456543 23.2124023,53.1713867 C23.2124023,53.1713867 39.7802734,53.1713867 39.7802734,53.1713867 Z" id="Oval" stroke="#1A237E"></path>
            <path d="M46,15.77771 L52.77771,9" id="Path-2" stroke="#FF5722"></path>
            <path d="M10,15.77771 L16.77771,9" id="Path-2-Copy" stroke="#FF5722" transform="translate(13.388855, 12.388855) scale(-1, 1) translate(-13.388855, -12.388855) "></path>
            <path d="M9.53662109,29 L0,29" id="Path-3" stroke="#FF5722"></path>
            <path d="M62.5366211,29.25 L53,29.25" id="Path-3-Copy" stroke="#FF5722"></path>
            <path d="M31.5,0.5 L31.5,9.5" id="Path-3-Copy-2" stroke="#FF5722"></path>
        </g>
    </g>
</svg>