<?xml version="1.0" encoding="UTF-8"?>
<svg width="1440px" height="152px" viewBox="0 0 1440 152" version="1.1" xmlns="http://www.w3.org/2000/svg" xmlns:xlink="http://www.w3.org/1999/xlink">
    <!-- Generator: Sketch 52.4 (67378) - http://www.bohemiancoding.com/sketch -->
    <title>Group 20</title>
    <desc>Created with Sketch.</desc>
    <defs>
        <linearGradient x1="50%" y1="50%" x2="50%" y2="100%" id="linearGradient-1">
            <stop stop-color="#000000" stop-opacity="0" offset="0%"></stop>
            <stop stop-color="#000000" offset="100%"></stop>
        </linearGradient>
        <path d="M0,3 C28.7740094,82.4196584 167.784074,130.624667 417.030194,147.615027 C790.899373,173.100566 1241.96023,-17.2293292 1440,124.581872 C1440,124.581872 1440,84.0545813 1440,3 L0,3 Z" id="path-2"></path>
        <filter x="-1.7%" y="-16.3%" width="103.3%" height="132.7%" filterUnits="objectBoundingBox" id="filter-3">
            <feGaussianBlur stdDeviation="24" in="SourceAlpha" result="shadowBlurInner1"></feGaussianBlur>
            <feOffset dx="0" dy="0" in="shadowBlurInner1" result="shadowOffsetInner1"></feOffset>
            <feComposite in="shadowOffsetInner1" in2="SourceAlpha" operator="arithmetic" k2="-1" k3="1" result="shadowInnerInner1"></feComposite>
            <feColorMatrix values="0 0 0 0 0   0 0 0 0 0   0 0 0 0 0  0 0 0 0.35 0" type="matrix" in="shadowInnerInner1"></feColorMatrix>
        </filter>
        <linearGradient x1="50%" y1="100%" x2="50%" y2="3.061617e-15%" id="linearGradient-4">
            <stop stop-color="#1A237E" stop-opacity="0" offset="0%"></stop>
            <stop stop-color="#1A237E" stop-opacity="0.275082237" offset="27.5082237%"></stop>
            <stop stop-color="#1A237E" offset="100%"></stop>
        </linearGradient>
        <linearGradient x1="0%" y1="0%" x2="100%" y2="100%" id="linearGradient-5">
            <stop stop-color="#FF5722" stop-opacity="0" offset="0%"></stop>
            <stop stop-color="#FF5722" offset="100%"></stop>
        </linearGradient>
    </defs>
    <g id="Page-1" stroke="none" stroke-width="1" fill="none" fill-rule="evenodd">
        <g id="Articles" transform="translate(0.000000, -223.000000)">
            <g id="header" transform="translate(0.000000, 75.000000)">
                <g id="Group-20" transform="translate(720.000000, 225.000000) scale(1, -1) translate(-720.000000, -225.000000) translate(0.000000, 150.000000)">
                    <g id="Path-2" opacity="0.200000003">
                        <use fill="url(#linearGradient-1)" fill-rule="evenodd" xlink:href="#path-2"></use>
                        <use fill-opacity="0.2" fill="#000000" fill-rule="evenodd" xlink:href="#path-2"></use>
                        <use fill="black" fill-opacity="1" filter="url(#filter-3)" xlink:href="#path-2"></use>
                    </g>
                    <polygon id="Rectangle-3" fill="url(#linearGradient-4)" points="0 0 1440 0 1440 147 0 147"></polygon>
                    <path d="M195.794018,50 L1441,50 L1441,51 C1441,85.526769 1441,85.526769 1441,107.498349 C1441,116.130042 1441,116.130042 1441,121.622937 C1441,125.546433 1441,125.546433 1441,126.331132 L1441,127.486014 L1439.85699,127.320853 C1405.16051,122.307345 1369.4809,118.591018 1332.67494,116.083778 C1258.9508,111.061653 1181.61797,110.895085 1096.42755,114.825986 C1030.26137,117.87906 968.443954,122.678272 872.037004,131.536707 C735.813041,144.053762 735.669666,144.066433 690.942731,147.035749 C628.923119,151.153085 579.730158,152.155629 537.429567,149.631892 C393.364465,141.036682 280.361867,108.442258 198.431479,51.8226686 L195.794018,50 Z" id="Path-2-Copy" stroke="url(#linearGradient-5)" stroke-width="2"></path>
                </g>
            </g>
        </g>
    </g>
</svg>