<?xml version="1.0" encoding="UTF-8"?>
<svg width="63px" height="70px" viewBox="0 0 63 70" version="1.1" xmlns="http://www.w3.org/2000/svg" xmlns:xlink="http://www.w3.org/1999/xlink">
    <!-- Generator: Sketch 51.3 (57544) - http://www.bohemiancoding.com/sketch -->
    <title>icon/partnership</title>
    <desc>Created with Sketch.</desc>
    <defs></defs>
    <g id="icon/partnership" stroke="none" stroke-width="1" fill="none" fill-rule="evenodd">
        <g id="partnership" transform="translate(3.000000, 11.000000)" fill-rule="nonzero" stroke-width="3">
            <path d="M46.6446148,35.7956614 C46.8993719,36.330995 47.0333333,36.9133712 47.0333333,37.5084058 C47.0333333,38.5732262 46.6043422,39.5975102 45.8218087,40.3842143 C44.5614342,41.651306 42.670895,41.9397594 41.2196148,41.2495745 C41.4743719,41.7849081 41.6083333,42.3672843 41.6083333,42.9623188 C41.6083333,44.0271393 41.1793422,45.0514232 40.3968087,45.8381274 C38.7770508,47.4665179 36.2729492,47.4665179 34.6531913,45.8381274 L33.3125,44.4902907 L33.3125,43.8713043 C33.3125,42.8272937 32.947656,41.9561712 32.1990247,41.2931998 C31.4683086,40.5585893 30.5670781,40.1771014 29.6458333,40.1771014 C29.4520833,40.1771014 29.4520833,40.1771014 29.3875,40.1771014 L27.745739,40.1771014 L27.8935954,38.5420119 C27.984374,37.5381259 27.60982,36.5496815 26.7740247,35.7094317 C26.0433086,34.9748212 25.1420781,34.5933333 24.2208333,34.5933333 C24.0270833,34.5933333 24.0270833,34.5933333 23.9625,34.5933333 L22.4625,34.5933333 L22.4625,33.0933333 C22.4625,32.995942 22.4625,32.995942 22.4625,32.8985507 C22.4625,32.8011594 22.4625,32.8011594 22.4625,32.7037681 C22.4625,31.6597575 22.097656,30.788635 21.3490247,30.1256636 C20.6183086,29.3910531 19.7170781,29.0095652 18.7958333,29.0095652 C18.6020833,29.0095652 18.6020833,29.0095652 18.5375,29.0095652 L16.895739,29.0095652 L17.0435954,27.3744757 C17.134374,26.3705896 16.75982,25.3821452 15.9240247,24.5418955 C15.1933086,23.807285 14.2920781,23.4257971 13.3708333,23.4257971 C12.3856014,23.4257971 11.5624545,23.7612838 10.817642,24.4120404 L6.78333333,28.4678503 L3.97373028,25.6432732 C0.790025275,23.0986722 -0.916666667,19.1381718 -0.916666667,14.7837681 C-0.916666667,10.5682964 0.697026067,6.56915537 3.65319132,3.59723496 C9.79378258,-2.57608315 19.7895508,-2.57608315 25.9052576,3.57279296 L29.8487947,7.35714054 L21.9259753,15.3221853 C21.00027,16.2528243 20.425,17.5747351 20.425,18.8092754 C20.425,20.1511624 20.9451134,21.4060874 21.9259753,22.2963654 C22.8909846,23.2665177 24.1693982,23.802029 25.3833333,23.802029 C26.6353539,23.802029 27.9862412,23.2477078 28.8406913,22.2963654 L36.75,14.3449033 L51.2468087,28.9189741 C52.0293422,29.7056782 52.4583333,30.7299622 52.4583333,31.7947826 C52.4583333,32.8953992 52.0249522,34.1480106 51.2468087,34.9303013 C49.9864342,36.197393 48.095895,36.4858464 46.6446148,35.7956614 Z" id="Path" stroke="#1A237E"></path>
            <path d="M8.4625,36.1515942 C7.39780726,36.1515942 6.37474795,35.7185366 5.59069132,34.9303013 C4.80815778,34.1435972 4.37916667,33.1193132 4.37916667,32.0544928 C4.37916667,30.9896723 4.80815778,29.9653884 5.59069132,29.1786842 L10.2406913,24.5039016 C11.0554287,23.684822 11.9556111,23.2826087 13.1125,23.2826087 C14.1771927,23.2826087 15.2002521,23.7156663 15.9843087,24.5039016 C17.5996749,26.1278771 17.5996749,28.6315432 15.9843087,30.2555187 L11.3343087,34.9303013 C10.5502521,35.7185366 9.52719274,36.1515942 8.4625,36.1515942 Z M14.0166667,41.6055072 C12.9519739,41.6055072 11.9289146,41.1724496 11.144858,40.3842143 C9.52949178,38.7602389 9.52949178,36.2565727 11.144858,34.6325973 L15.794858,29.9578147 C16.6095954,29.138735 17.5097777,28.7365217 18.6666667,28.7365217 C19.7313594,28.7365217 20.7544187,29.1695793 21.5384753,29.9578147 C22.3210089,30.7445188 22.75,31.7688028 22.75,32.8336232 C22.75,33.8984436 22.3210089,34.9227276 21.5384753,35.7094317 L16.8884753,40.3842143 C16.1044187,41.1724496 15.0813594,41.6055072 14.0166667,41.6055072 Z M19.4416667,47.1892754 C18.3769739,47.1892754 17.3539146,46.7562178 16.569858,45.9679824 C15.7873245,45.1812783 15.3583333,44.1569943 15.3583333,43.0921739 C15.3583333,42.0273535 15.7873245,41.0030695 16.569858,40.2163654 L21.219858,35.5415828 C22.0345954,34.7225032 22.9347777,34.3202899 24.0916667,34.3202899 C25.1563594,34.3202899 26.1794187,34.7533475 26.9634753,35.5415828 C28.5788416,37.1655582 28.5788416,39.6692244 26.9634753,41.2931998 L22.3134753,45.9679824 C21.5294187,46.7562178 20.5063594,47.1892754 19.4416667,47.1892754 Z M27.7384753,51.5517505 C26.2592271,53.0388826 23.680394,53.0388826 21.994858,51.5517505 C20.3794918,49.9277751 20.3794918,47.424109 21.994858,45.8001335 L26.644858,41.1253509 C27.4595954,40.3062713 28.3597777,39.904058 29.5166667,39.904058 C30.5813594,39.904058 31.6044187,40.3371156 32.3884753,41.1253509 C33.1710089,41.912055 33.6,42.936339 33.6,44.0011594 C33.6,45.0659798 33.1710089,46.0902638 32.3884753,46.8769679 L27.7384753,51.5517505 Z M36.75,15.0927778 L29.1593087,22.7239245 C27.0150623,24.8795988 23.5710022,24.8795988 21.607358,22.7239245 C20.5570599,21.6680287 20.0083333,20.3808429 20.0083333,18.9391304 C20.0083333,17.4566591 20.5812113,16.039022 21.6502677,15.1112003 L32.1747212,4.53122823 C38.1658012,-1.77859184 48.1799735,-1.82333648 54.3468087,4.37636539 C57.3343866,7.37986593 58.9166667,11.264165 58.9166667,15.5628986 C58.9166667,19.7783703 57.3029739,23.7775113 54.3468087,26.7494317 L51.3458333,29.766401 L36.75,15.0927778 Z" id="Path" stroke="#FF5722" fill="#FFFFFF"></path>
        </g>
    </g>
</svg>