<svg xmlns="http://www.w3.org/2000/svg" xmlns:xlink="http://www.w3.org/1999/xlink" viewBox="0 0 174.9 24.8"><defs><style>.a{fill:none;}.b{clip-path:url(#a);}.c{fill:#ff542e;}.d{fill:#ff552f;}.e{fill:#ff5530;}.f{fill:#ff5631;}.g{fill:#ff5632;}.h{fill:#ff5733;}.i{fill:#ff5734;}.j{fill:#ff5835;}.k{fill:#ff5836;}.l{fill:#ff5937;}.m{fill:#ff5938;}.n{fill:#ff5a39;}.o{fill:#ff5a3a;}.p{fill:#ff5b3b;}.q{fill:#ff5b3c;}.r{fill:#ff5c3d;}.s{fill:#ff5c3e;}.t{fill:#ff5d3f;}.u{fill:#ff5d40;}.v{fill:#ff5e41;}.w{fill:#ff5e42;}.x{fill:#ff5f43;}.y{fill:#ff5f44;}.z{fill:#ff6045;}.aa{fill:#ff6047;}.ab{fill:#ff6148;}.ac{fill:#ff6149;}.ad{fill:#ff624a;}.ae{fill:#ff624b;}.af{fill:#ff634c;}.ag{fill:#ff634d;}.ah{fill:#ff644e;}.ai{fill:#ff644f;}.aj{fill:#ff6550;}.ak{fill:#ff6551;}.al{fill:#ff6652;}.am{fill:#ff6653;}.an{fill:#ff6754;}.ao{fill:#ff6755;}.ap{fill:#ff6856;}.aq{fill:#ff6857;}.ar{fill:#ff6958;}.as{fill:#ff6959;}.at{fill:#ff6a5a;}.au{fill:#ff6a5b;}.av{fill:#ff6b5c;}.aw{fill:#ff6b5d;}.ax{fill:#ff6c5e;}.ay{fill:#ff6c5f;}.az{fill:#ff6d5e;}.ba{fill:#ff6e5d;}.bb{fill:#ff6f5c;}.bc{fill:#ff705b;}.bd{fill:#fe715a;}.be{fill:#fe7259;}.bf{fill:#fe7358;}.bg{fill:#fe7457;}.bh{fill:#fe7556;}.bi{fill:#fe7655;}.bj{fill:#fe7654;}.bk{fill:#fe7753;}.bl{fill:#fd7852;}.bm{fill:#fd7951;}.bn{fill:#fd7a50;}.bo{fill:#fd7b4f;}.bp{fill:#fd7c4e;}.bq{fill:#fd7d4d;}.br{fill:#fd7e4c;}.bs{fill:#fd7f4b;}.bt{fill:#fc804a;}.bu{fill:#fc8149;}.bv{fill:#fc8248;}.bw{fill:#fc8347;}.bx{fill:#fc8446;}.by{fill:#fc8545;}.bz{fill:#fc8644;}.ca{fill:#fc8743;}.cb{fill:#fb8842;}.cc{fill:#fb8941;}.cd{fill:#fb8a40;}.ce{fill:#fb8b3f;}.cf{fill:#fb8b3d;}.cg{fill:#fb8c3c;}.ch{fill:#fb8d3b;}.ci{fill:#fb8e3a;}.cj{fill:#fa8f39;}.ck{fill:#fa9038;}.cl{fill:#fa9137;}.cm{fill:#fa9236;}.cn{fill:#fa9335;}.co{fill:#fa9434;}.cp{fill:#fa9533;}.cq{fill:#fa9632;}.cr{fill:#f99731;}.cs{fill:#f99830;}.ct{fill:#f9992f;}.cu{fill:#f99a2e;}.cv{fill:#f99b2d;}.cw{fill:#f99c2c;}.cx{fill:#f99d2b;}.cy{fill:#f99e2a;}.cz{fill:#f89f29;}.da{fill:#f89f28;}.db{fill:#f8a027;}.dc{fill:#f8a126;}.dd{fill:#f8a225;}.de{fill:#f8a324;}.df{isolation:isolate;}.dg{fill:#fff;}</style><clipPath id="a" transform="translate(0 0.4)"><path class="a" d="M6.3,18.2a4.1,4.1,0,0,0,1.5,5.1,4.3,4.3,0,0,0,5.4-.6,4.1,4.1,0,0,0,.4-5.3,4.2,4.2,0,0,0-5.2-1.3L4.2,12,8.3,7.9a4.2,4.2,0,0,0,5.2-1.4A4,4,0,0,0,13,1.2,4.2,4.2,0,0,0,6.2,5.9L0,12Z"/></clipPath></defs><title>polymer-logo</title><g class="b"><polygon class="c" points="0 4.3 4.2 24.8 0 24.8 0 4.3"/><polygon class="c" points="0 3.3 4.4 24.8 4.2 24.8 0 4.3 0 3.3"/><polygon class="d" points="0 2.4 4.6 24.8 4.4 24.8 0 3.3 0 2.4"/><polygon class="e" points="0 1.4 4.8 24.8 4.6 24.8 0 2.4 0 1.4"/><polygon class="f" points="0 0.5 5 24.8 4.8 24.8 0 1.4 0 0.5"/><polygon class="g" points="0.1 0 5.2 24.8 5 24.8 0 0.5 0 0 0.1 0"/><polygon class="h" points="0.3 0 5.4 24.8 5.2 24.8 0.1 0 0.3 0"/><polygon class="i" points="0.5 0 5.6 24.8 5.4 24.8 0.3 0 0.5 0"/><polygon class="j" points="0.7 0 5.7 24.8 5.6 24.8 0.5 0 0.7 0"/><polygon class="k" points="0.9 0 5.9 24.8 5.7 24.8 0.7 0 0.9 0"/><polygon class="l" points="1.1 0 6.1 24.8 5.9 24.8 0.9 0 1.1 0"/><polygon class="m" points="1.3 0 6.3 24.8 6.1 24.8 1.1 0 1.3 0"/><polygon class="n" points="1.4 0 6.5 24.8 6.3 24.8 1.3 0 1.4 0"/><polygon class="o" points="1.6 0 6.7 24.8 6.5 24.8 1.4 0 1.6 0"/><polygon class="p" points="1.8 0 6.9 24.8 6.7 24.8 1.6 0 1.8 0"/><polygon class="q" points="2 0 7.1 24.8 6.9 24.8 1.8 0 2 0"/><polygon class="r" points="2.2 0 7.3 24.8 7.1 24.8 2 0 2.2 0"/><polygon class="s" points="2.4 0 7.5 24.8 7.3 24.8 2.2 0 2.4 0"/><polygon class="t" points="2.6 0 7.7 24.8 7.5 24.8 2.4 0 2.6 0"/><polygon class="u" points="2.8 0 7.9 24.8 7.7 24.8 2.6 0 2.8 0"/><polygon class="v" points="3 0 8.1 24.8 7.9 24.8 2.8 0 3 0"/><polygon class="w" points="3.2 0 8.3 24.8 8.1 24.8 3 0 3.2 0"/><polygon class="x" points="3.4 0 8.5 24.8 8.3 24.8 3.2 0 3.4 0"/><polygon class="y" points="3.6 0 8.6 24.8 8.5 24.8 3.4 0 3.6 0"/><polygon class="z" points="3.8 0 8.8 24.8 8.6 24.8 3.6 0 3.8 0"/><polygon class="aa" points="4 0 9 24.8 8.8 24.8 3.8 0 4 0"/><polygon class="ab" points="4.2 0 9.2 24.8 9 24.8 4 0 4.2 0"/><polygon class="ac" points="4.3 0 9.4 24.8 9.2 24.8 4.2 0 4.3 0"/><polygon class="ad" points="4.5 0 9.6 24.8 9.4 24.8 4.3 0 4.5 0"/><polygon class="ae" points="4.7 0 9.8 24.8 9.6 24.8 4.5 0 4.7 0"/><polygon class="af" points="4.9 0 10 24.8 9.8 24.8 4.7 0 4.9 0"/><polygon class="ag" points="5.1 0 10.2 24.8 10 24.8 4.9 0 5.1 0"/><polygon class="ah" points="5.3 0 10.4 24.8 10.2 24.8 5.1 0 5.3 0"/><polygon class="ai" points="5.5 0 10.6 24.8 10.4 24.8 5.3 0 5.5 0"/><polygon class="aj" points="5.7 0 10.8 24.8 10.6 24.8 5.5 0 5.7 0"/><polygon class="ak" points="5.9 0 11 24.8 10.8 24.8 5.7 0 5.9 0"/><polygon class="al" points="6.1 0 11.2 24.8 11 24.8 5.9 0 6.1 0"/><polygon class="am" points="6.3 0 11.4 24.8 11.2 24.8 6.1 0 6.3 0"/><polygon class="an" points="6.5 0 11.5 24.8 11.4 24.8 6.3 0 6.5 0"/><polygon class="ao" points="6.7 0 11.7 24.8 11.5 24.8 6.5 0 6.7 0"/><polygon class="ap" points="6.9 0 11.9 24.8 11.7 24.8 6.7 0 6.9 0"/><polygon class="aq" points="7.1 0 12.1 24.8 11.9 24.8 6.9 0 7.1 0"/><polygon class="ar" points="7.2 0 12.3 24.8 12.1 24.8 7.1 0 7.2 0"/><polygon class="as" points="7.4 0 12.5 24.8 12.3 24.8 7.2 0 7.4 0"/><polygon class="at" points="7.6 0 12.7 24.8 12.5 24.8 7.4 0 7.6 0"/><polygon class="au" points="7.8 0 12.9 24.8 12.7 24.8 7.6 0 7.8 0"/><polygon class="av" points="8 0 13.1 24.8 12.9 24.8 7.8 0 8 0"/><polygon class="aw" points="8.2 0 13.3 24.8 13.1 24.8 8 0 8.2 0"/><polygon class="ax" points="8.4 0 13.5 24.8 13.3 24.8 8.2 0 8.4 0"/><polygon class="ay" points="8.6 0 13.7 24.8 13.5 24.8 8.4 0 8.6 0"/><polygon class="ay" points="8.7 0 13.8 24.8 13.7 24.8 8.6 0 8.7 0"/><polygon class="az" points="8.8 0 13.9 24.8 13.8 24.8 8.7 0 8.8 0"/><polygon class="ba" points="8.9 0 14 24.8 13.9 24.8 8.8 0 8.9 0"/><polygon class="bb" points="9 0 14.1 24.8 14 24.8 8.9 0 9 0"/><polygon class="bc" points="9.1 0 14.2 24.8 14.1 24.8 9 0 9.1 0"/><polygon class="bd" points="9.2 0 14.3 24.8 14.2 24.8 9.1 0 9.2 0"/><polygon class="be" points="9.3 0 14.4 24.8 14.3 24.8 9.2 0 9.3 0"/><polygon class="bf" points="9.4 0 14.5 24.8 14.4 24.8 9.3 0 9.4 0"/><polygon class="bg" points="9.5 0 14.6 24.8 14.5 24.8 9.4 0 9.5 0"/><polygon class="bh" points="9.7 0 14.7 24.8 14.6 24.8 9.5 0 9.7 0"/><polygon class="bi" points="9.8 0 14.8 24.7 14.8 24.8 14.7 24.8 9.7 0 9.8 0"/><polygon class="bj" points="9.9 0 14.8 24.1 14.8 24.7 9.8 0 9.9 0"/><polygon class="bk" points="10 0 14.8 23.6 14.8 24.1 9.9 0 10 0"/><polygon class="bl" points="10.1 0 14.8 23.1 14.8 23.6 10 0 10.1 0"/><polygon class="bm" points="10.2 0 14.8 22.6 14.8 23.1 10.1 0 10.2 0"/><polygon class="bn" points="10.3 0 14.8 22.1 14.8 22.6 10.2 0 10.3 0"/><polygon class="bo" points="10.4 0 14.8 21.6 14.8 22.1 10.3 0 10.4 0"/><polygon class="bp" points="10.5 0 14.8 21 14.8 21.6 10.4 0 10.5 0"/><polygon class="bq" points="10.6 0 14.8 20.5 14.8 21 10.5 0 10.6 0"/><polygon class="br" points="10.7 0 14.8 20 14.8 20.5 10.6 0 10.7 0"/><polygon class="bs" points="10.8 0 14.8 19.5 14.8 20 10.7 0 10.8 0"/><polygon class="bt" points="10.9 0 14.8 19 14.8 19.5 10.8 0 10.9 0"/><polygon class="bu" points="11 0 14.8 18.5 14.8 19 10.9 0 11 0"/><polygon class="bv" points="11.1 0 14.8 17.9 14.8 18.5 11 0 11.1 0"/><polygon class="bw" points="11.2 0 14.8 17.4 14.8 17.9 11.1 0 11.2 0"/><polygon class="bx" points="11.3 0 14.8 16.9 14.8 17.4 11.2 0 11.3 0"/><polygon class="by" points="11.4 0 14.8 16.4 14.8 16.9 11.3 0 11.4 0"/><polygon class="bz" points="11.6 0 14.8 15.9 14.8 16.4 11.4 0 11.6 0"/><polygon class="ca" points="11.7 0 14.8 15.4 14.8 15.9 11.6 0 11.7 0"/><polygon class="cb" points="11.8 0 14.8 14.8 14.8 15.4 11.7 0 11.8 0"/><polygon class="cc" points="11.9 0 14.8 14.3 14.8 14.8 11.8 0 11.9 0"/><polygon class="cd" points="12 0 14.8 13.8 14.8 14.3 11.9 0 12 0"/><polygon class="ce" points="12.1 0 14.8 13.3 14.8 13.8 12 0 12.1 0"/><polygon class="cf" points="12.2 0 14.8 12.8 14.8 13.3 12.1 0 12.2 0"/><polygon class="cg" points="12.3 0 14.8 12.3 14.8 12.8 12.2 0 12.3 0"/><polygon class="ch" points="12.4 0 14.8 11.7 14.8 12.3 12.3 0 12.4 0"/><polygon class="ci" points="12.5 0 14.8 11.2 14.8 11.7 12.4 0 12.5 0"/><polygon class="cj" points="12.6 0 14.8 10.7 14.8 11.2 12.5 0 12.6 0"/><polygon class="ck" points="12.7 0 14.8 10.2 14.8 10.7 12.6 0 12.7 0"/><polygon class="cl" points="12.8 0 14.8 9.7 14.8 10.2 12.7 0 12.8 0"/><polygon class="cm" points="12.9 0 14.8 9.2 14.8 9.7 12.8 0 12.9 0"/><polygon class="cn" points="13 0 14.8 8.7 14.8 9.2 12.9 0 13 0"/><polygon class="co" points="13.1 0 14.8 8.1 14.8 8.7 13 0 13.1 0"/><polygon class="cp" points="13.2 0 14.8 7.6 14.8 8.1 13.1 0 13.2 0"/><polygon class="cq" points="13.3 0 14.8 7.1 14.8 7.6 13.2 0 13.3 0"/><polygon class="cr" points="13.5 0 14.8 6.6 14.8 7.1 13.3 0 13.5 0"/><polygon class="cs" points="13.6 0 14.8 6.1 14.8 6.6 13.5 0 13.6 0"/><polygon class="ct" points="13.7 0 14.8 5.6 14.8 6.1 13.6 0 13.7 0"/><polygon class="cu" points="13.8 0 14.8 5 14.8 5.6 13.7 0 13.8 0"/><polygon class="cv" points="13.9 0 14.8 4.5 14.8 5 13.8 0 13.9 0"/><polygon class="cw" points="14 0 14.8 4 14.8 4.5 13.9 0 14 0"/><polygon class="cx" points="14.1 0 14.8 3.5 14.8 4 14 0 14.1 0"/><polygon class="cy" points="14.2 0 14.8 3 14.8 3.5 14.1 0 14.2 0"/><polygon class="cz" points="14.3 0 14.8 2.5 14.8 3 14.2 0 14.3 0"/><polygon class="da" points="14.4 0 14.8 1.9 14.8 2.5 14.3 0 14.4 0"/><polygon class="db" points="14.5 0 14.8 1.4 14.8 1.9 14.4 0 14.5 0"/><polygon class="dc" points="14.6 0 14.8 0.9 14.8 1.4 14.5 0 14.6 0"/><polygon class="dd" points="14.7 0 14.8 0.4 14.8 0.9 14.6 0 14.7 0"/><polygon class="de" points="14.8 0.4 14.7 0 14.8 0 14.8 0.4"/></g><g class="df"><g class="df"><path class="dg" d="M30.5,20V5.7h4.6a20.2,20.2,0,0,1,3.4.2,3.8,3.8,0,0,1,2.1,1.4,4.7,4.7,0,0,1,.8,2.8,3.8,3.8,0,0,1-.5,2.2,3.3,3.3,0,0,1-1.2,1.4,3.4,3.4,0,0,1-1.5.7l-3,.2H33.3V20ZM33.3,8.1v4.1h1.6a5.6,5.6,0,0,0,2.3-.3,1.3,1.3,0,0,0,.9-.7,2,2,0,0,0,.3-1.1A2,2,0,0,0,38,8.8a2.3,2.3,0,0,0-1.2-.6H33.3Z" transform="translate(0 0.4)"/><path class="dg" d="M43.4,14.7a5.4,5.4,0,0,1,.7-2.7A3.9,3.9,0,0,1,46,10.1a5,5,0,0,1,2.7-.7,5.1,5.1,0,0,1,5.4,5.4,5.1,5.1,0,0,1-5.4,5.4,6.6,6.6,0,0,1-2.7-.6,4.4,4.4,0,0,1-1.9-1.9A5.6,5.6,0,0,1,43.4,14.7Zm2.8.1a3.6,3.6,0,0,0,.7,2.4,2.4,2.4,0,0,0,3.6,0,3.6,3.6,0,0,0,.8-2.4,3.2,3.2,0,0,0-.8-2.3,2.2,2.2,0,0,0-3.6,0A3.2,3.2,0,0,0,46.2,14.8Z" transform="translate(0 0.4)"/><path class="dg" d="M56.5,20V5.7h2.7V20Z" transform="translate(0 0.4)"/><path class="dg" d="M61,9.6h2.9L66.4,17l2.4-7.4h2.8L68,19.6l-.7,1.8a6,6,0,0,1-.7,1.4,2.7,2.7,0,0,1-.7.8l-1.1.4a3,3,0,0,1-1.4.2,3.9,3.9,0,0,1-1.5-.2l-.3-2.1h1.2a2,2,0,0,0,1.4-.5,3.5,3.5,0,0,0,.7-1.5Z" transform="translate(0 0.4)"/><path class="dg" d="M73.4,9.6H76V11a3.9,3.9,0,0,1,3.2-1.6,3.1,3.1,0,0,1,1.7.4A3.4,3.4,0,0,1,82.1,11a7.9,7.9,0,0,1,1.5-1.2,3.3,3.3,0,0,1,1.7-.4,3.3,3.3,0,0,1,3.1,1.8,6.1,6.1,0,0,1,.3,2.2V20H85.9V14.1a6.9,6.9,0,0,0-.2-2,1.4,1.4,0,0,0-1.2-.6,2,2,0,0,0-1.1.3,2.1,2.1,0,0,0-.7,1.1,5.1,5.1,0,0,0-.3,2.1v5H79.7V14.3a6.6,6.6,0,0,0-.2-1.9,1,1,0,0,0-.4-.7l-.8-.2a2.4,2.4,0,0,0-1.2.3,2.3,2.3,0,0,0-.7,1,6.5,6.5,0,0,0-.2,2.2v5H73.4Z" transform="translate(0 0.4)"/><path class="dg" d="M97.7,16.7l2.7.5a4.6,4.6,0,0,1-4.5,3,4.7,4.7,0,0,1-4-1.7,6.1,6.1,0,0,1-1-3.6,5.5,5.5,0,0,1,1.3-4,4.3,4.3,0,0,1,3.4-1.5,4.7,4.7,0,0,1,3.7,1.5c.9,1,1.3,2.6,1.2,4.7H93.7a2.7,2.7,0,0,0,.6,1.9,2.1,2.1,0,0,0,1.6.7,1.5,1.5,0,0,0,1.1-.4A2.3,2.3,0,0,0,97.7,16.7Zm.1-2.8a2.4,2.4,0,0,0-.6-1.8,2,2,0,0,0-1.4-.6,2,2,0,0,0-1.5.6,2.8,2.8,0,0,0-.6,1.8Z" transform="translate(0 0.4)"/><path class="dg" d="M105.6,20h-2.7V9.6h2.5v1.5a6.3,6.3,0,0,1,1.2-1.4l1.2-.3a4.1,4.1,0,0,1,1.8.5l-.8,2.4a2.4,2.4,0,0,0-1.3-.4,1.5,1.5,0,0,0-1.6,1.4,12.8,12.8,0,0,0-.3,3.5Z" transform="translate(0 0.4)"/><path class="dg" d="M116.8,5.7h5.3a10.4,10.4,0,0,1,2.8.3A3.9,3.9,0,0,1,127,7.3a5.9,5.9,0,0,1,1.4,2.3,10.9,10.9,0,0,1,.4,3.4,8.7,8.7,0,0,1-.4,3,6.6,6.6,0,0,1-1.5,2.6,6.8,6.8,0,0,1-2.1,1.1,8.1,8.1,0,0,1-2.5.3h-5.5Zm2.9,2.4v9.5h3.9l1.2-.6a3.7,3.7,0,0,0,.8-1.4,9.3,9.3,0,0,0,.3-2.6,8.4,8.4,0,0,0-.3-2.6,2.8,2.8,0,0,0-.9-1.4,3.2,3.2,0,0,0-1.3-.7h-3.7Z" transform="translate(0 0.4)"/><path class="dg" d="M131.5,8.2V5.7h2.8V8.2Zm0,11.8V9.6h2.8V20Z" transform="translate(0 0.4)"/><path class="dg" d="M137.1,20.7l3.1.4c.1.3.2.6.4.7a1.7,1.7,0,0,0,1.2.3,3.5,3.5,0,0,0,1.6-.3,1.8,1.8,0,0,0,.5-.7,3.5,3.5,0,0,0,.2-1.3V18.3A3.8,3.8,0,0,1,141,20a3.8,3.8,0,0,1-3.3-1.8,5.5,5.5,0,0,1-1-3.4,5.4,5.4,0,0,1,1.3-4,4,4,0,0,1,6.3.3V9.6h2.5v9.3a9.4,9.4,0,0,1-.3,2.8,3.7,3.7,0,0,1-.8,1.4,3.6,3.6,0,0,1-1.5.8,7.5,7.5,0,0,1-2.3.3,5.7,5.7,0,0,1-3.7-.9,2.7,2.7,0,0,1-1.1-2.3Zm2.4-6.1a3.3,3.3,0,0,0,.7,2.4,1.9,1.9,0,0,0,1.5.8,2.1,2.1,0,0,0,1.7-.8,3.2,3.2,0,0,0,.7-2.3,3.8,3.8,0,0,0-.6-2.4,2.3,2.3,0,0,0-1.7-.8,1.9,1.9,0,0,0-1.6.8A3.2,3.2,0,0,0,139.5,14.6Z" transform="translate(0 0.4)"/><path class="dg" d="M149.8,8.2V5.7h2.7V8.2Zm0,11.8V9.6h2.7V20Z" transform="translate(0 0.4)"/><path class="dg" d="M160.3,9.6v2.2h-1.8v5.7q0,.2.3.3a.5.5,0,0,0,.4.2l1.1-.3.3,2.1a5.4,5.4,0,0,1-2.2.4A3.2,3.2,0,0,1,157,20a1.9,1.9,0,0,1-.8-.7,2.3,2.3,0,0,1-.4-1,9.3,9.3,0,0,1-.1-2V11.8h-1.3V9.6h1.3v-2L158.5,6V9.6Z" transform="translate(0 0.4)"/><path class="dg" d="M164.5,12.8l-2.5-.5a4,4,0,0,1,1.5-2.2,5.1,5.1,0,0,1,3-.7,6.9,6.9,0,0,1,2.8.4,2.6,2.6,0,0,1,1.2,1.1,5.1,5.1,0,0,1,.4,2.5v3.2a10.4,10.4,0,0,0,.1,2,4.8,4.8,0,0,0,.5,1.4h-2.7l-.3-.8a.4.4,0,0,0-.1-.3,6.5,6.5,0,0,1-1.5,1,4.7,4.7,0,0,1-1.7.3,3.7,3.7,0,0,1-2.5-.8,2.9,2.9,0,0,1-.5-3.8,2.3,2.3,0,0,1,1.1-1.1l2.2-.6a12.4,12.4,0,0,0,2.7-.7V13a1.5,1.5,0,0,0-.4-1.2,2.6,2.6,0,0,0-1.5-.3,1.8,1.8,0,0,0-1.1.3A2,2,0,0,0,164.5,12.8Zm3.7,2.2-1.7.4-1.5.5a1.4,1.4,0,0,0-.5,1,1.3,1.3,0,0,0,.4,1,1.5,1.5,0,0,0,1.1.4,2.4,2.4,0,0,0,1.4-.5,1.3,1.3,0,0,0,.7-.9,4.2,4.2,0,0,0,.1-1.3Z" transform="translate(0 0.4)"/></g><g class="df"><path class="dg" d="M172.1,20V5.7h2.8V20Z" transform="translate(0 0.4)"/></g></g></svg>