<?xml version="1.0" encoding="UTF-8"?>
<svg width="31px" height="24px" viewBox="0 0 31 24" version="1.1" xmlns="http://www.w3.org/2000/svg" xmlns:xlink="http://www.w3.org/1999/xlink">
    <!-- Generator: Sketch 52.2 (67145) - http://www.bohemiancoding.com/sketch -->
    <title>“</title>
    <desc>Created with Sketch.</desc>
    <g id="Page-1" stroke="none" stroke-width="1" fill="none" fill-rule="evenodd">
        <g id="Company" transform="translate(-118.000000, -1881.000000)" fill="#FF5722">
            <g id="section/cta" transform="translate(0.000000, 1711.000000)">
                <g id="Group-9" transform="translate(118.000000, 170.000000)">
                    <path d="M12.4931507,3.28767123 C9.35158247,6.35617973 7.4885874,9.46117151 6.90410959,12.6027397 L12.2739726,12.6027397 L11.2876712,24 L0,24 L0.657534247,16 C0.876713425,12.9314915 1.60729973,10.1004696 2.84931507,7.50684932 C4.09133041,4.91322904 6.02738411,2.41097096 8.65753425,0 L12.4931507,3.28767123 Z M30.9041096,3.28767123 C27.7625414,6.35617973 25.8995463,9.46117151 25.3150685,12.6027397 L30.6849315,12.6027397 L29.6986301,24 L18.4109589,24 L19.0684932,16 C19.2876723,12.9314915 20.0182586,10.1004696 21.260274,7.50684932 C22.5022893,4.91322904 24.438343,2.41097096 27.0684932,0 L30.9041096,3.28767123 Z" id="“"></path>
                </g>
            </g>
        </g>
    </g>
</svg>