<?xml version="1.0" encoding="UTF-8"?>
<svg width="63px" height="72px" viewBox="0 0 63 72" version="1.1" xmlns="http://www.w3.org/2000/svg" xmlns:xlink="http://www.w3.org/1999/xlink">
    <!-- Generator: Sketch 52.2 (67145) - http://www.bohemiancoding.com/sketch -->
    <title>icon/discovery</title>
    <desc>Created with Sketch.</desc>
    <g id="Symbols" stroke="none" stroke-width="1" fill="none" fill-rule="evenodd">
        <g id="service" transform="translate(-136.000000, -58.000000)">
            <g transform="translate(110.000000, 60.000000)" id="icon/discovery">
                <g transform="translate(26.000000, 0.000000)">
                    <g transform="translate(0.000000, -2.000000)" id="Shape">
                        <path d="M45.4446245,8.73711938 C38.4026851,3.451589 29.0181914,2.45867588 21.0219806,6.15311596 C13.0257697,9.84755603 7.71373156,17.6306173 7.19768471,26.4081175 C1.14897448,32.1588499 -1.25180226,37.756421 0.623729619,41.8092156 C2.19106988,45.1955187 6.45538661,47.0214899 12.7127558,47.0214899 C13.2236104,47.0214899 13.7484555,47.0095242 14.2872912,46.9855927 C15.0068047,46.9520887 15.7515011,46.8874737 16.5009944,46.810893 C17.6929907,47.733962 18.9698177,48.5424579 20.314416,49.2255784 L20.314416,51.8077841 L19.1152268,51.8077841 C18.4529329,51.8077841 17.9160376,52.3435084 17.9160376,53.0043577 L17.9160376,64.9700931 C17.9160376,65.6309424 18.4529329,66.1666667 19.1152268,66.1666667 L43.0990104,66.1666667 C43.7613043,66.1666667 44.2981996,65.6309424 44.2981996,64.9700931 L44.2981996,53.0043577 C44.2981996,52.3435084 43.7613043,51.8077841 43.0990104,51.8077841 L41.8998213,51.8077841 L41.8998213,49.2255784 C49.5755329,45.3386311 54.5881845,37.6590503 55.0477315,29.0824594 C55.6161471,28.5416081 56.1677741,27.9971672 56.6798279,27.450333 C61.5413409,22.2560073 63.2861611,17.3775769 61.5905076,13.7148653 C59.704183,9.63694268 53.8269569,7.83729607 45.4446245,8.73711938 Z M2.80625393,40.806487 C1.56509313,38.1249656 3.20558393,34.1056751 7.21327417,29.7980103 C7.68089971,35.3710381 10.0840839,40.6062214 14.0078801,44.5996251 C8.10547092,44.8245809 4.0294269,43.4592905 2.80625393,40.806487 Z M20.0266106,46.3191013 C23.3847385,45.7081076 26.6889076,44.8318519 29.9079294,43.6986052 L29.9079294,47.1411473 C27.5548823,47.6251469 25.7161492,49.4598694 25.2310916,51.8077841 L22.7127943,51.8077841 L22.7127943,48.4765234 C22.7125166,48.0114602 22.4422091,47.5886843 22.019663,47.3924277 C21.3368514,47.069887 20.6715754,46.7116133 20.0266106,46.3191013 Z M31.1071186,49.414637 C32.626234,49.4209207 33.9776723,50.3786555 34.4840354,51.8077841 L27.7302019,51.8077841 C28.236565,50.3786555 29.5880032,49.4209207 31.1071186,49.414637 Z M41.8998213,63.7735196 L20.314416,63.7735196 L20.314416,60.1837989 L41.8998213,60.1837989 L41.8998213,63.7735196 Z M41.8998213,57.7906519 L20.314416,57.7906519 L20.314416,54.2009312 L41.8998213,54.2009312 L41.8998213,57.7906519 Z M40.1945742,47.3924277 C39.7720282,47.5886843 39.5017206,48.0114602 39.5014429,48.4765234 L39.5014429,51.8077841 L36.9831456,51.8077841 C36.498088,49.4598694 34.6593549,47.6251469 32.3063078,47.1411473 L32.3063078,42.8215168 C33.9156197,42.2028883 35.5297283,41.53879 37.1402394,40.7969144 C42.5948012,38.3279855 47.715071,35.1816345 52.3795355,31.4325298 C51.183191,38.4229534 46.6310926,44.3853052 40.1945742,47.3924277 Z M52.6925239,27.9959706 C47.7425023,32.3468968 42.1635799,35.9285785 36.1437132,38.6203471 C34.8677759,39.2090613 33.5906394,39.7427331 32.3159013,40.2500803 L32.3159013,33.859181 L35.9134689,33.859181 C40.5473345,33.8539057 44.3025063,30.1069245 44.3077931,25.4831661 C44.3077931,24.8223168 43.7708979,24.2865926 43.108604,24.2865926 L38.3022537,24.2865926 C36.0437499,24.2860653 33.8810741,25.1971554 32.3063078,26.8125593 L32.3063078,21.8934455 L29.9079294,21.8934455 L29.9079294,31.5988535 C28.3331632,29.9834496 26.1704873,29.0723595 23.9119835,29.0728868 L19.1152268,29.0728868 C18.4529329,29.0728868 17.9160376,29.608611 17.9160376,30.2694603 C17.9213244,34.8932187 21.6764962,38.6401999 26.3103619,38.6454751 L29.9079294,38.6454751 L29.9079294,41.1690487 C25.8083846,42.6809179 21.5543781,43.7374852 17.2229063,44.3196269 C9.5817702,37.8943452 7.36381886,27.0735134 11.8631354,18.1706405 C16.3624519,9.26776769 26.4008968,4.61405815 36.1214515,6.92475948 C45.8420062,9.23546081 52.6993575,17.9055192 52.6925239,27.8763132 C52.6925239,27.9181933 52.6925239,27.9588768 52.6925239,27.9959706 Z M32.4262267,31.4660339 C32.9995375,28.682051 35.4538932,26.6828654 38.3022537,26.6797397 L41.7799023,26.6797397 C41.2065915,29.4637225 38.7522358,31.4629081 35.9038754,31.4660339 L32.4262267,31.4660339 Z M29.7880105,36.252328 L26.3103619,36.252328 C23.4620014,36.2492023 21.0076457,34.2500167 20.4343349,31.4660339 L23.9119835,31.4660339 C26.760344,31.4691596 29.2146997,33.4683452 29.7880105,36.252328 Z M54.9829752,25.7523952 C54.487683,20.1485618 52.0243137,14.8994685 48.027678,10.9316353 C53.9888474,10.6564233 58.1656233,12.0085514 59.4199752,14.717594 C60.6479449,17.385953 59.0314379,21.4052435 54.9829752,25.7523952 Z" fill="#1A237E" fill-rule="nonzero"></path>
                        <path d="M36.5348069,9.56756757 C42.1736261,11.2894014 46.8069077,15.7631091 49.1336336,21.7324806 L46.9133039,22.8108108 C44.8778881,17.5868159 40.8243386,13.6709487 35.8903904,12.1622997 L36.5348069,9.56756757 Z M48.6534176,26.5945946 C48.586289,26.0976492 48.4848649,25.605786 48.3498498,25.1224218 L49.8941206,24.7027027 C50.0488774,25.2554318 50.1650228,25.8179512 50.2417417,26.3863129 L48.6534176,26.5945946 Z M30.3228228,17.1351351 L32.0255255,17.1351351 L32.0255255,18.8378378 L30.3228228,18.8378378 L30.3228228,17.1351351 Z M30.3228228,12.2432432 L32.0255255,12.2432432 L32.0255255,13.9459459 L30.3228228,13.9459459 L30.3228228,12.2432432 Z M47.457958,67.7957958 L47.457958,62.5405405 L49.3498498,62.5405405 L49.3498498,67.7957958 C49.3498498,70.1177137 47.6557921,72 45.5660661,72 L41.7822823,72 L41.7822823,69.8978979 L45.5660661,69.8978979 C46.6109291,69.8978979 47.457958,68.9567547 47.457958,67.7957958 Z M25.539039,2.03627512 C18.4364222,3.85085713 12.4664038,7.86907612 8.88842694,13.2432432 L6.62012012,12.2229757 C10.5232328,6.36067608 17.0363152,1.97800238 24.7846591,0 L25.539039,2.03627512 Z M3.83633634,18.6559486 C4.02138434,18.1386699 4.2383544,17.6309539 4.48624884,17.1351351 L5.72822823,17.6339619 C5.50086723,18.0880406 5.30206752,18.5531205 5.13275866,19.027027 L3.83633634,18.6559486 Z M47.3498498,56.8648649 L49.0525526,56.8648649 L49.0525526,58.5675676 L47.3498498,58.5675676 L47.3498498,56.8648649 Z" fill="#FF5722" fill-rule="nonzero"></path>
                    </g>
                </g>
            </g>
        </g>
    </g>
</svg>