<svg xmlns="http://www.w3.org/2000/svg" viewBox="0 0 148.5 158.8"><path class="social-a" d="M103.2,81.8A46.2,46.2,0,0,0,101.7,92a16.7,16.7,0,0,0,1.2,6.3,6.6,6.6,0,0,0,3.4,3.2,12.2,12.2,0,0,0,4.9.9,13.2,13.2,0,0,0,7.7-2.6,22.9,22.9,0,0,0,6.4-7.3,42.2,42.2,0,0,0,4.4-11.2,56.9,56.9,0,0,0,1.6-14.1,59.7,59.7,0,0,0-3.9-22.4,45.7,45.7,0,0,0-11.2-16.2,47.3,47.3,0,0,0-16.9-9.8,68,68,0,0,0-21.6-3.2A58.1,58.1,0,0,0,34.8,33.7,59.8,59.8,0,0,0,22.2,53.5a65.4,65.4,0,0,0-4.6,24.7c0,10.7,1.7,20.1,5,28.2a57.7,57.7,0,0,0,13.7,20.4A56.5,56.5,0,0,0,56.8,139a75.8,75.8,0,0,0,25.5,4.2,104.5,104.5,0,0,0,14.1-.9,92.2,92.2,0,0,0,12-2.2,90.9,90.9,0,0,0,10-3.2,66.5,66.5,0,0,0,8-3.9,5.6,5.6,0,0,1,4.5-.9,4.6,4.6,0,0,1,2.9,2.9l3.3,8.8a94.9,94.9,0,0,1-23.8,10.8,105.2,105.2,0,0,1-31,4.2,92.2,92.2,0,0,1-32.8-5.6,75.6,75.6,0,0,1-26.1-16A73.6,73.6,0,0,1,6.2,111.8C2.1,101.9,0,90.7,0,78.2A77.2,77.2,0,0,1,2.7,57.8a75.3,75.3,0,0,1,7.7-18.5,77.2,77.2,0,0,1,12-15.9A75.3,75.3,0,0,1,38.1,11,73.9,73.9,0,0,1,56.7,2.9a78.8,78.8,0,0,1,47.7,1.7A70.5,70.5,0,0,1,127,18a64,64,0,0,1,15.7,21.1c3.9,8.3,5.8,17.7,5.8,28.1a62.4,62.4,0,0,1-3,19.6,54.5,54.5,0,0,1-8.6,16,41.7,41.7,0,0,1-13.1,10.6,34.4,34.4,0,0,1-16.3,3.8,22.5,22.5,0,0,1-11.9-3.1c-3.4-2.1-5.8-5.4-7.1-10.1-3.9,4.7-8,8.1-12.3,10.1a32.6,32.6,0,0,1-14,3A25.5,25.5,0,0,1,51.5,115a23.2,23.2,0,0,1-7.6-5.9,25.1,25.1,0,0,1-4.6-8.9A40.4,40.4,0,0,1,37.8,89a50.1,50.1,0,0,1,1.4-11.4,44.9,44.9,0,0,1,4.3-11,45.1,45.1,0,0,1,7-10,46.7,46.7,0,0,1,10-8.1A51.7,51.7,0,0,1,73.4,43a60.7,60.7,0,0,1,15.9-2,61.2,61.2,0,0,1,13,1.2,58.9,58.9,0,0,1,10.3,3.3Zm-11.4-25a34.9,34.9,0,0,0-6.5-.6A25.7,25.7,0,0,0,74,58.8a30.7,30.7,0,0,0-9.2,7.1,36.1,36.1,0,0,0-6.1,10.4,33.3,33.3,0,0,0-2.2,12.1c0,4.1.8,7.4,2.6,9.7a9.5,9.5,0,0,0,7.9,3.5,19.3,19.3,0,0,0,5.2-.8A14.4,14.4,0,0,0,77.1,98a19.5,19.5,0,0,0,4.3-5.3,31.4,31.4,0,0,0,3.2-8.4Z"/></svg>
