<?xml version="1.0" encoding="UTF-8"?>
<svg width="315px" height="200px" viewBox="0 0 315 200" version="1.1" xmlns="http://www.w3.org/2000/svg" xmlns:xlink="http://www.w3.org/1999/xlink">
    <!-- Generator: Sketch 52.2 (67145) - http://www.bohemiancoding.com/sketch -->
    <title>Group 3</title>
    <desc>Created with Sketch.</desc>
    <defs>
        <filter x="-10.5%" y="-33.3%" width="121.0%" height="166.7%" filterUnits="objectBoundingBox" id="filter-1">
            <feOffset dx="0" dy="18" in="SourceAlpha" result="shadowOffsetOuter1"></feOffset>
            <feGaussianBlur stdDeviation="18" in="shadowOffsetOuter1" result="shadowBlurOuter1"></feGaussianBlur>
            <feColorMatrix values="0 0 0 0 0   0 0 0 0 0   0 0 0 0 0  0 0 0 0.15 0" type="matrix" in="shadowBlurOuter1" result="shadowMatrixOuter1"></feColorMatrix>
            <feMerge>
                <feMergeNode in="shadowMatrixOuter1"></feMergeNode>
                <feMergeNode in="SourceGraphic"></feMergeNode>
            </feMerge>
        </filter>
        <path d="M6,0 L309,8.8817842e-16 C312.313708,2.79460044e-16 315,2.6862915 315,6 L315,309 C315,312.313708 312.313708,315 309,315 L6,315 C2.6862915,315 4.05812251e-16,312.313708 0,309 L8.8817842e-16,6 C4.82366169e-16,2.6862915 2.6862915,6.08718376e-16 6,0 Z" id="path-2"></path>
        <linearGradient x1="29.5084635%" y1="83.5457343%" x2="69.124349%" y2="-16.2907569%" id="linearGradient-4">
            <stop stop-color="#000000" stop-opacity="0" offset="0%"></stop>
            <stop stop-color="#000000" offset="100%"></stop>
        </linearGradient>
    </defs>
    <g id="Page-1" stroke="none" stroke-width="1" fill="none" fill-rule="evenodd">
        <g id="Company" transform="translate(-220.000000, -1292.000000)">
            <g id="section/what-we-do" transform="translate(0.000000, 1076.000000)">
                <rect id="Rectangle-4-Copy-2" stroke-opacity="0.2" stroke="#000000" fill="#FFFFFF" x="0" y="0" width="1440" height="635"></rect>
                <g id="content" transform="translate(220.000000, 104.000000)">
                    <g id="team" filter="url(#filter-1)" transform="translate(0.000000, 112.000000)">
                        <g id="services">
                            <mask id="mask-3" fill="white">
                                <use xlink:href="#path-2"></use>
                            </mask>
                            <use id="Rectangle-Copy" stroke="#E6E6E6" fill="#FFFFFF" xlink:href="#path-2"></use>
                            <g id="Group-3" mask="url(#mask-3)">
                                <rect id="Rectangle-2" fill="#1A237E" x="0" y="0" width="315" height="200"></rect>
                                <path d="M0,5.68840053 C33.4713542,-4.95888552 65.7174479,-0.65934694 96.7382812,18.5870163 C143.269531,47.4565611 143.368652,100 208.019531,100 C251.120117,100 286.780273,133.333333 315,200 L0,200 L0,5.68840053 Z" id="Path-4" fill="url(#linearGradient-4)" opacity="0.5"></path>
                            </g>
                        </g>
                    </g>
                </g>
            </g>
        </g>
    </g>
</svg>